<svg xmlns="http://www.w3.org/2000/svg" viewBox="0 0 296.49 252.68"><defs><style>.cls-1{opacity:0.66;}.cls-2{fill:#fff;}</style></defs><title>Logo</title><g id="Layer_2" data-name="Layer 2"><g id="logo"><g class="cls-1"><path class="cls-2" d="M153.93,116.83c-2.19,0-4-2.15-4-4.8s1.78-4.8,4-4.8,4,2.15,4,4.8S156.11,116.83,153.93,116.83Zm0-9c-1.85,0-3.36,1.88-3.36,4.19s1.51,4.19,3.36,4.19,3.35-1.88,3.35-4.19S155.78,107.84,153.93,107.84Z"/><path class="cls-2" d="M129.08,162.32c2.74,2.35,10,7.81,18.48,7.81,9.33,0,17.66-5.4,20.92-7.81-3.31-2.44-11.64-7.81-20.92-7.81C139.09,154.51,131.82,160,129.08,162.32Z"/><path class="cls-2" d="M148,121.54l.54-1.11,1.91,2.56,2-2.83.63.73a28.22,28.22,0,0,0,2,2.15A25.21,25.21,0,0,0,156.7,121l.66-1,.61,1c.49.84,1,1.65,1.34,2.17.27-.33.64-.77,1-1.22,0,0,0,0,0,0,0-1-.06-4-.77-4.86-.85-1-3.48-1.11-5.24-1.11a11.46,11.46,0,0,0-5.05.89c-1.06.5-1.55,3.61-1.69,5.64C147.72,122.19,147.88,121.87,148,121.54Z"/><path class="cls-2" d="M163.82,126.76h0a6.11,6.11,0,0,1-3.09-1.48,1.6,1.6,0,0,1-.35-1c-.63.71-.86.77-1.12.77s-.65-.1-2-2.26c-1.29,1.79-1.74,1.95-2.09,1.95s-.81-.17-2.56-2.12l-2.09,3-1.68-2.26c-.87,1.67-1.21,1.95-1.61,2a2.6,2.6,0,0,1-1.94,1.39h-.08a.31.31,0,0,1-.13,0h0c-17.38,3.94-30.31,18.78-30.31,36.49,0,20.72,17.7,37.52,39.53,37.52s39.53-16.8,39.53-37.52C193.84,145.58,181.06,130.81,163.82,126.76ZM178,166.69c2.65,2.79,4.84,5.39,4.93,5.5l-2.32,1.95s-2.23-2.64-4.81-5.36a61.37,61.37,0,0,0-4.88-4.5c-2.94,2.29-12.37,8.88-23.38,8.88-12,0-21.42-9.37-21.81-9.77l-.44-.45V161.7l.44-.45c.39-.4,9.77-9.78,21.81-9.78,11,0,20.37,6.54,23.38,8.89a62.27,62.27,0,0,0,4.88-4.51c2.58-2.72,4.79-5.33,4.81-5.36l2.32,2c-.09.11-2.28,2.71-4.93,5.49a63.39,63.39,0,0,1-4.69,4.38A60.8,60.8,0,0,1,178,166.69Z"/></g><g class="cls-1"><path class="cls-2" d="M87.68,140a39.32,39.32,0,0,0-6.11,3.57A69,69,0,0,0,76,148c-1.77,1.56-3.49,3.13-5.18,4.81a8,8,0,0,0-2,3.05,3.67,3.67,0,0,0,0,1.86,1.17,1.17,0,0,1,0,.78c-.06.2-.59.24-.56-.1-.07.15.09.31.24.34a.44.44,0,0,0,.47-.14,1.35,1.35,0,0,0,.12-.93,3.05,3.05,0,0,1,.29-1.61,8.14,8.14,0,0,1,2.1-2.6l5.31-4.59C80.29,145.74,83.86,142.76,87.68,140Z"/><path class="cls-2" d="M85.16,146a12,12,0,0,0-.52,2.21,26.46,26.46,0,0,1,10.78-11.61,13.77,13.77,0,0,0-7.13,4.19,14.93,14.93,0,0,0-2.1,2.89c-.8.86-1.58,1.74-2.36,2.62a39.14,39.14,0,0,0-4.28,5.53,24.22,24.22,0,0,0-2.36,6.61c-.57,2.24-1.06,4.5-1.5,6.77l0,.2.14-.13.54-.46-.45.25c.79-2.11,1.54-4.23,2.21-6.37a30.47,30.47,0,0,1,2.46-6.29,59,59,0,0,1,4-5.55Z"/><path class="cls-2" d="M87.53,145.76a30.93,30.93,0,0,0-2.35,4.67c-.62,1.61-1.45,3-2.22,4.64a7.43,7.43,0,0,0-.7,2.6,4,4,0,0,0,.63,2.56,5.87,5.87,0,0,1,.88-4.76l1.33-2.21c.43-.77.8-1.58,1.15-2.37.66-1.61,1.3-3.16,2.07-4.69s1.61-3,2.5-4.5A20.75,20.75,0,0,0,87.53,145.76Z"/><path class="cls-2" d="M91.17,151.3a13.45,13.45,0,0,1,.63-3.48,21.75,21.75,0,0,1,2.66-6.56,44,44,0,0,1,4.65-5.47,30.53,30.53,0,0,0,4.61-5.7,61.1,61.1,0,0,1-5.24,5.06,31.4,31.4,0,0,0-5,5.47,19,19,0,0,0-2.57,7,12.14,12.14,0,0,0-.32,3.73,4.36,4.36,0,0,0,.66,1.79,2.61,2.61,0,0,0,1.43,1.15A3.35,3.35,0,0,1,91.17,151.3Z"/><path class="cls-2" d="M73.7,136.76a28.61,28.61,0,0,1,3.69-1.8q3.6-1.54,7.31-2.81c-.14.24-.28.48-.41.73.24-.31.51-.58.77-.86h0a114.32,114.32,0,0,1,16-4,54.36,54.36,0,0,0-14,2.2,21.42,21.42,0,0,1,2.52-1.6A38.56,38.56,0,0,1,96.1,126a98.84,98.84,0,0,1,13.63-3.3,43.48,43.48,0,0,0-14,2.2,28.33,28.33,0,0,0-6.53,2.93,15,15,0,0,0-3.3,2.76l-1.19.37A57.44,57.44,0,0,0,77,134.14a22.86,22.86,0,0,0-3.62,2.15,8.84,8.84,0,0,0-2.73,3.17A9.68,9.68,0,0,1,73.7,136.76Z"/><path class="cls-2" d="M114.93,125.25a43.14,43.14,0,0,0-8.17,6.14,13.56,13.56,0,0,0-.15-2.92,20.81,20.81,0,0,1-.52,3.55c-.84.83-1.65,1.69-2.44,2.57s-1.58,1.85-2.33,2.87a4.48,4.48,0,0,0-.82,1.87,3.92,3.92,0,0,0,.26,2c0,.14.12.26.18.39a36.59,36.59,0,0,1-7.85,6.42,22.33,22.33,0,0,0,8.38-5.36c1,1.7,2.35,3.08,3.2,4.8-.56-2-1.82-3.65-2.62-5.41.45-.5.88-1,1.28-1.55a18.16,18.16,0,0,0,2.86-5.8,14.6,14.6,0,0,0,.39-1.74A107.23,107.23,0,0,1,114.93,125.25ZM102.4,140c-.25.35-.53.68-.8,1a3.29,3.29,0,0,1-.1-1.48,3.45,3.45,0,0,1,.71-1.4c.72-.92,1.52-1.86,2.31-2.76.28-.32.58-.62.87-.94A22.1,22.1,0,0,1,102.4,140Z"/><path class="cls-2" d="M129.9,115.1a8.72,8.72,0,0,0,.62-4.9,12.4,12.4,0,0,1-1.44,4.53,35.07,35.07,0,0,1-2.59,4,34,34,0,0,0-2.63,4.16,10.19,10.19,0,0,0-1.28,4.77,16.22,16.22,0,0,1,2.06-4.32c.87-1.33,1.84-2.61,2.8-3.94A21.29,21.29,0,0,0,129.9,115.1Z"/><path class="cls-2" d="M143.42,107.75a8.71,8.71,0,0,0-.23-4A15.7,15.7,0,0,1,141,111a14,14,0,0,1-1.58,2.17c.06-.16.14-.31.19-.46a8.23,8.23,0,0,0,.33-4.2,7.28,7.28,0,0,0-1-2.56c.55.31,1.1.62,1.68.91-.63-.55-1.27-1.11-1.93-1.64l1.32-.71a6.06,6.06,0,0,0,2.44.47,8.69,8.69,0,0,1-1.81-.81l1-.53,4.18-2.76c-1.59.53-3.15,1.14-4.71,1.73l-1.58.85-.79-.57-.19-.15.44-.07a12,12,0,0,0,3.09-1.15,19.77,19.77,0,0,0,2.72-1.76,8,8,0,0,0,1.25-1.1l0-.06.28.39c0-.21-.08-.41-.12-.62a1.47,1.47,0,0,0,.26-1.3,1.42,1.42,0,0,1-.36.76,13.21,13.21,0,0,0-1.65-3.72,11.81,11.81,0,0,0-3.66-3.72c.85,1.56,1.79,2.93,2.69,4.35.74,1.13,1.45,2.27,2.24,3.42l-.11.09c-.41.28-.88.49-1.35.75-.95.5-1.85,1-2.78,1.5a26.39,26.39,0,0,1-2.8,1.31c-.33.12-.67.22-1,.33a14.9,14.9,0,0,0-2.72-1.67c-.2-.09-.41-.16-.62-.24l1.14-.22a18.57,18.57,0,0,0,3.84-1.33,14.56,14.56,0,0,0,1.78-1,5.81,5.81,0,0,0,.92-.69,2.52,2.52,0,0,1,.71,1.16,1.81,1.81,0,0,0-.08-1.29,2.92,2.92,0,0,0-.23-.47.58.58,0,0,0,.08-.18.63.63,0,0,1-.11.12c-.11-.21-.24-.4-.36-.59-.45-.68-1-1.31-1.46-1.94a18.35,18.35,0,0,0-3.57-3.35,18.28,18.28,0,0,0,2.68,4.09,23.3,23.3,0,0,0,1.66,1.78l.48.47a10.28,10.28,0,0,1-1,.38c-.62.23-1.24.44-1.86.65-1.25.39-2.5.76-3.77,1a25.23,25.23,0,0,1-3.81.63h-.07a6.83,6.83,0,0,0-.79-.06c-.18,0-.37,0-.56,0a4.32,4.32,0,0,1-2.2-.87,3.11,3.11,0,0,0,.94,1,9.59,9.59,0,0,0-2.54.71,16.08,16.08,0,0,1,8.29,1.24,14.06,14.06,0,0,1,1.83,1l-.65.15a6.7,6.7,0,0,0,1.19.18c.44.27.88.54,1.35.81l.46.26-1,.56a11.5,11.5,0,0,0-1.62-1,20.4,20.4,0,0,0-5.46-1.72,32.7,32.7,0,0,0-5.66-.43c-.95,0-1.89,0-2.82.09-.48,0-.92,0-1.43.11a1.86,1.86,0,0,0-.69.3c-.2.14-.35.46-.18.66-.11-.24.08-.43.27-.51a1.56,1.56,0,0,1,.64-.13l1.38.14,2.79.24c1.85.17,3.69.35,5.5.67a28.55,28.55,0,0,1,5.3,1.4c.42.15.83.34,1.24.53l-.22.12-1,.55c-.06-.19-.13-.37-.2-.55,0,.21,0,.42,0,.64L133.09,107a30,30,0,0,0-11.24-2.32,31.07,31.07,0,0,0-7,.71,30.5,30.5,0,0,0-3.39,1c-.56.18-1.09.42-1.63.64a2.75,2.75,0,0,0-.66.38c-.53.11-1.06.24-1.59.38l1.26,0a.64.64,0,0,0-.07.68v0h0l.81.41-.68-.54a.53.53,0,0,1,.3-.58l0,0a100.42,100.42,0,0,1,11.38.07c2.17.13,4.32.38,6.48.68.93.13,1.87.29,2.8.45L128.11,110c-.64.39-1.27.81-1.91,1.21l-.83-.31a8.71,8.71,0,0,0-.48-1.23,10.27,10.27,0,0,1,.12,1.1c-.43-.15-.86-.27-1.3-.39a26.91,26.91,0,0,0-5.5-.78,34.19,34.19,0,0,0-5.54.22,10.81,10.81,0,0,0-2.73.73,5.33,5.33,0,0,0-2.21,1.7,8.54,8.54,0,0,1,5-1.53c1.79,0,3.62,0,5.41,0a45.63,45.63,0,0,1,5.36.5c.52.09,1,.21,1.53.31,0,.12,0,.25,0,.37-.86.55-1.72,1.12-2.58,1.69-.62-.12-1.24-.23-1.87-.33-1.81-.28-3.64-.46-5.47-.58s-3.67-.15-5.51-.09c-.91,0-1.83.08-2.75.15a12,12,0,0,0-1.39.17,2,2,0,0,0-.66.31.72.72,0,0,0-.3.63c.09-.49.61-.59,1-.62a12.82,12.82,0,0,1,1.35.08l2.73.18,5.45.34,5.45.33,1,.06c-.6.4-1.2.79-1.79,1.2l-.46.32-.14-.14a8.05,8.05,0,0,0-1.54-.86,12.79,12.79,0,0,0-3.38-.84,32.63,32.63,0,0,0-13.65,1.35,29.14,29.14,0,0,0-3.22,1.22,6.5,6.5,0,0,0-2.72,2.1,7.08,7.08,0,0,1,2.93-1.57c1.07-.33,2.16-.62,3.25-.88a51.7,51.7,0,0,1,6.62-1.12,48.54,48.54,0,0,1,6.71-.2,15.09,15.09,0,0,1,3.28.47,7.3,7.3,0,0,1,1.54.58.47.47,0,0,1,.09.06c-1,.7-2,1.4-3,2.14a24.46,24.46,0,0,0-11.47-1.57,25,25,0,0,0-9.39,2.9,29,29,0,0,0-6.74,1.6,15.37,15.37,0,0,0-6.67,4.6,18.62,18.62,0,0,1,7-3.74,32.28,32.28,0,0,1,4.11-1A19.92,19.92,0,0,0,91,122.41a31.55,31.55,0,0,1,3-1.67c.83-.12,1.66-.23,2.5-.31a51.36,51.36,0,0,1,15.89,1.11,31.93,31.93,0,0,0-7.84-2.07,34.56,34.56,0,0,0-6.82-.27,31.33,31.33,0,0,1,17.79-.71,12.09,12.09,0,0,0-3,3.92,14.09,14.09,0,0,1,3.79-3.1l.59-.42c.46.14.93.29,1.39.46a13.52,13.52,0,0,0-.83,2.52.15.15,0,0,0,0,.07A38.82,38.82,0,0,0,105.78,126a40.08,40.08,0,0,0-7.6,5.23,38.44,38.44,0,0,0-11.82,2.52A40.36,40.36,0,0,0,79.87,137a7.71,7.71,0,0,0-2.66,2.37,24.62,24.62,0,0,0-2.91.93A25.89,25.89,0,0,0,69.12,143a26.92,26.92,0,0,0-2.3,1.81l-1,1c-.33.29-.75.63-1.22.43a.83.83,0,0,0,.72.13,2.55,2.55,0,0,0,.7-.3l1.2-.81c.8-.53,1.61-1,2.43-1.49a38,38,0,0,1,5.12-2.42c.67-.27,1.35-.49,2-.71a3.19,3.19,0,0,0,0,.69,2.18,2.18,0,0,0,.83,1.59,2.43,2.43,0,0,1-.35-2.45,45.3,45.3,0,0,1,7-1.53c-1.32.66-2.63,1.35-3.89,2.11a11.12,11.12,0,0,0-2.59,1.9,2.86,2.86,0,0,0-.66,3,2.77,2.77,0,0,1,1.07-2.63,12.3,12.3,0,0,1,2.61-1.51c1.86-.91,3.71-1.81,5.59-2.66s3.77-1.69,5.67-2.51l5.74-2.42a52,52,0,0,0-11.89,3.88c-.35.16-.68.34-1,.51a22.64,22.64,0,0,0-6.61.46,10.25,10.25,0,0,1,2.11-1.34,61.39,61.39,0,0,1,6.46-2.92,64.76,64.76,0,0,1,10.83-3.08,35,35,0,0,0-2.82,2.89c1.42-1.11,2.86-2.16,4.32-3.18l1.41-.26c-.34,0-.69,0-1,0a69.47,69.47,0,0,1,6.84-4.18,75.28,75.28,0,0,1,11.14-4.77A37,37,0,0,0,117,128c0,.73,0,1.45-.1,2.17-.52,1.24-1,2.49-1.43,3.76-.34,1-.65,2-.91,3.07a7.58,7.58,0,0,0-.15,3.21,8.7,8.7,0,0,1,.69-3c.38-1,.81-1.95,1.22-2.91.83-1.94,1.67-3.87,2.57-5.77,1-2.24,2.13-4.45,3.25-6.65a16.16,16.16,0,0,0,2.17-2.92,11.48,11.48,0,0,0,1.31-3.65l.06,0-.06-.08a8.66,8.66,0,0,0,.12-.89c0-.2,0-.4,0-.6l.13-.06-.13,0c0-.26,0-.51,0-.77l1.3-.83c.59.16,1.17.31,1.76.51a11.9,11.9,0,0,0-1.34-.77l1.26-.81c1-.59,1.93-1.17,2.9-1.74.1,0,.2,0,.3.08a1.92,1.92,0,0,1,1.19,1,1.92,1.92,0,0,0-1.06-1.27s0,0-.06,0l2.16-1.26,1.22.37c-.32-.18-.66-.34-1-.5l1.26-.72a18.52,18.52,0,0,1-2.49,8.07c-.81,1.55-1.74,3.08-2.61,4.62a23.17,23.17,0,0,1-1.43,2.21c-.26.36-.54.69-.83,1-.15.17-.31.32-.47.48a.35.35,0,0,1-.24.15c-.07,0-.16-.16,0-.2-.14,0-.14.25,0,.28a.49.49,0,0,0,.36-.09l.57-.38a10.87,10.87,0,0,0,1-.88,16.64,16.64,0,0,0,1.76-2.09,47,47,0,0,0,2.88-4.58,17.3,17.3,0,0,0,1.85-5.16,10.83,10.83,0,0,0,0-3.68l1.23-.71.9-.48.29.17a9.58,9.58,0,0,1,.64,3,9.43,9.43,0,0,1-.54,3.7,8.77,8.77,0,0,1-2,3.13,16.79,16.79,0,0,0-2.59,3.12l-.11.21.2,0a.9.9,0,0,0,.94-.49.81.81,0,0,1-.57.24c.87-.86,1.86-1.56,2.82-2.4a8.53,8.53,0,0,0,.62-.59,10.64,10.64,0,0,0,1.47-.92,10.86,10.86,0,0,0,4.08-6.9ZM117.3,118.64c.8-.58,1.62-1.16,2.43-1.73a.55.55,0,0,1-.07.28.56.56,0,0,0,.15-.33l.38-.27a10,10,0,0,0-1.64,2.3c-.06.11-.09.23-.14.34C118,119,117.68,118.82,117.3,118.64Zm.65,9.14c.1-.88.17-1.75.26-2.62a23.13,23.13,0,0,0,1.85-1.41C119.31,125.07,118.6,126.41,118,127.78Zm5.37-9.47a46.43,46.43,0,0,1-5.08,6.59,25.33,25.33,0,0,1,.42-2.79c0-.1,0-.19.07-.28l.34-.12-.32.05a10.88,10.88,0,0,1,2.33-4.8,11.31,11.31,0,0,1,3-2.44,4.6,4.6,0,0,1,.66.2A12.93,12.93,0,0,1,123.32,118.31Zm1.54-4.11c0,.08,0,.16,0,.24a3.07,3.07,0,0,0-.31-.17c.12-.07.25-.11.38-.17S124.87,114.17,124.86,114.2Zm0-.37c-.28.07-.56.15-.83.24l-.09,0,1-.64Zm5.72-5.33-.15,0c-1-.33-2.12-.62-3.2-.85a43.32,43.32,0,0,0-15-.72c.9-.19,1.79-.38,2.7-.51a42.18,42.18,0,0,1,6.83-.5,44.1,44.1,0,0,1,10.74,1.46C131.93,107.71,131.28,108.11,130.63,108.5Z"/><path class="cls-2" d="M147,106.87a6.77,6.77,0,0,0-.84-4,11.72,11.72,0,0,1-1.26,7.44c-1,2.12-2.43,4.12-3.53,6.33,0-.07,0-.15,0-.23-.1.28-.21.56-.31.83l-.24.7.49-.6a31.84,31.84,0,0,0,4.62-6.54A11.14,11.14,0,0,0,147,106.87Z"/><path class="cls-2" d="M128.81,92.08c-.22.06-.45.11-.67.18l-2,.54c-1.33.36-2.65.72-4,1-2.65.69-5.32,1.25-8,2a26.89,26.89,0,0,0,8.33-.82,32.5,32.5,0,0,0,4-1.31c.65-.26,1.29-.56,1.91-.87l.66-.36c.32.6.63,1.21.94,1.83a12.57,12.57,0,0,0-.42-2.2,1.11,1.11,0,0,0,.36-.68,1.21,1.21,0,0,1-.43.44,16.58,16.58,0,0,0-2.25-4.61,18,18,0,0,0-1.35-1.68,1.21,1.21,0,0,1,1.39-.34,3.38,3.38,0,0,1,1.32,1.31L131,89.91c.75,1,1.49,2.09,2.25,3.14-2.33,1-4.59,2.07-6.91,3-1.27.53-2.57,1-3.87,1.49a7,7,0,0,1-4,.61,3.65,3.65,0,0,0,2.08.55,9.53,9.53,0,0,0,2.15-.3c.86-.2,1.71-.46,2.55-.74a11,11,0,0,0,2.36.42,16,16,0,0,0,4-.26,26.54,26.54,0,0,0,3.86-1.07l.37-.14,0,.05a.14.14,0,0,1,0-.06l1.47-.58a5.72,5.72,0,0,0,.92-.47,2,2,0,0,0,.26-.25,3.34,3.34,0,0,1,.7,1.51,2.51,2.51,0,0,0-.1-1.64,8.13,8.13,0,0,0-.75-1.47,14.81,14.81,0,0,0-2-2.54,14.44,14.44,0,0,0-2.5-2.05,4.44,4.44,0,0,0-1.54-.71,2,2,0,0,0-.88,0,.69.69,0,0,0-.15.07c-.65-.87-1.32-1.72-2-2.52a3.57,3.57,0,0,0-1.88-1.3,1.65,1.65,0,0,0-1.16.24,1.14,1.14,0,0,0-.46.56,14.14,14.14,0,0,0-4.26-3.23,48.2,48.2,0,0,1,4.74,5.66A39,39,0,0,1,128.81,92.08Zm6.44,3.79c-1.29.28-2.56.58-3.83.8a27.9,27.9,0,0,1-4.9.51l.21-.07a25.41,25.41,0,0,0,6.59-3.88c.64.88,1.3,1.76,2,2.63Zm-3.09-6.94a5.36,5.36,0,0,1,1.17.88c.76.71,1.52,1.41,2.23,2.15s1.41,1.49,2.1,2.27c.25.3.5.59.74.89a1.51,1.51,0,0,1-.29.13,5.27,5.27,0,0,1-.93.22l-1.63.34a33.51,33.51,0,0,0-3.66-6.57c-.12-.18-.26-.35-.39-.53A2,2,0,0,1,132.16,88.93Z"/><path class="cls-2" d="M124.21,88.65a4.62,4.62,0,0,1,1.9,3l-.74.63c.34-.13.67-.27,1-.42l0,0,0-.09a3,3,0,0,0-.32-2.09,7.66,7.66,0,0,0-1.21-1.68A26.89,26.89,0,0,0,122,85.22a23.61,23.61,0,0,0-6.92-3.92c2.11,1.62,4.2,3.14,6.2,4.81C122.26,86.93,123.24,87.78,124.21,88.65Z"/><path class="cls-2" d="M117.88,88.05c.28.45.57.89.79,1.34-2.17.94-4.29,1.91-6.46,2.77-1.27.53-2.55,1-3.84,1.5l-1.94.71a1.82,1.82,0,0,1-1.87-.14,1.23,1.23,0,0,0,.87.64,3.21,3.21,0,0,0,1.11.06c.73-.11,1.4-.24,2.09-.41a28.5,28.5,0,0,0,4-1.29,26,26,0,0,0,6.17-3.53,1.59,1.59,0,0,1,.05,1.36c-.26,0-.52.1-.78.15.29.05.59.09.89.12h0l.06-.06a2,2,0,0,0,.36-2l0-.11.42-.34-.47.21a11.66,11.66,0,0,0-.63-1.53,18.5,18.5,0,0,0-2-3.15,17,17,0,0,0-5.63-4.76,61.46,61.46,0,0,1,4.72,5.46C116.57,86.06,117.24,87,117.88,88.05Z"/><path class="cls-2" d="M114.08,85.75a5.18,5.18,0,0,1,1.18,2.85l-.5.09c.21,0,.42.09.63.12h.08l0-.11a4.52,4.52,0,0,0-.61-3.5,13.13,13.13,0,0,0-2.25-2.7,18.15,18.15,0,0,0-5.75-3.81c1.68,1.59,3.36,3.06,5,4.63A22,22,0,0,1,114.08,85.75Z"/><path class="cls-2" d="M108.63,84.14a34.64,34.64,0,0,1,3.29,3,3.68,3.68,0,0,1,1,1.76,2.41,2.41,0,0,1,0,.71l-.8.13-4.67.75-4.67.78a13.52,13.52,0,0,1-4.66.25,9,9,0,0,0,4.76.65,47.81,47.81,0,0,0,4.76-.54c1.57-.27,3.13-.59,4.67-1l.2-.06a2.11,2.11,0,0,1-.25.27,1.52,1.52,0,0,0,.58-.37,12.53,12.53,0,0,0,3.89-1.75,22.11,22.11,0,0,1-3.35.82,2.59,2.59,0,0,0,.1-.67,4,4,0,0,0-.89-2.29,19.39,19.39,0,0,0-3.27-3.32A18.85,18.85,0,0,0,101,79.35c1.37.72,2.69,1.42,4,2.22A37.39,37.39,0,0,1,108.63,84.14Z"/><path class="cls-2" d="M123.79,92.07a5.46,5.46,0,0,0,.92-.49,1.44,1.44,0,0,0,.6-.86,2.32,2.32,0,0,1-1.69.81l-2,.4-3.89.84c-2.6.57-5.2,1.08-7.81,1.79a29,29,0,0,0,8-.66,35.29,35.29,0,0,0,3.9-1.1C122.54,92.58,123.16,92.33,123.79,92.07Z"/><path class="cls-2" d="M98.35,88.52c1.48.1,3,.15,4.44.17a69.09,69.09,0,0,0,7.47-.28,3.34,3.34,0,0,1,.43,1.18,2.54,2.54,0,0,0-.06-1.22c.36,0,.71-.06,1.07-.11l-1.16-.16a5.12,5.12,0,0,0-.35-.75,7.25,7.25,0,0,0-1.59-1.72,21.16,21.16,0,0,0-3.89-2.41,19.59,19.59,0,0,0-8.81-2c1.45.43,2.87.85,4.26,1.35s2.73,1.06,4,1.69c-.19,0-.38-.07-.58-.09a9.49,9.49,0,0,0-5.32,1c1.83,0,3.52,0,5.23.13,1.18.08,2.35.26,3.55.46.32.19.66.37,1,.57A7.6,7.6,0,0,1,110,88c-2.4-.3-4.8-.43-7.2-.49-1.48,0-3,0-4.44,0a14.61,14.61,0,0,1-4.28-.31L94,86.61l-.12.72v.06l.07,0A10.11,10.11,0,0,0,98.35,88.52Z"/><path class="cls-2" d="M242.5,98.08l-1.1.17a3,3,0,0,0,.17-1.21,5.51,5.51,0,0,0-1-2.64,9.79,9.79,0,0,0-4-3.55c1.07,1.45,2.12,2.76,3,4.18a7.28,7.28,0,0,1,1.07,2.14,3.54,3.54,0,0,1,.1,1.18l-1.65.26a4.55,4.55,0,0,0,0-1.91,8.45,8.45,0,0,0-2-3.67,19,19,0,0,0-6.49-4.86,70.81,70.81,0,0,1,5.61,5.62,9.71,9.71,0,0,1,2.05,3.15,4.92,4.92,0,0,1,.27,1.76l-2.64.39h0a3,3,0,0,0-.42-1.25,21.64,21.64,0,0,0-1.27-2A17.13,17.13,0,0,0,231,92.35a17.45,17.45,0,0,0,2.28,4.16,20.19,20.19,0,0,0,1.48,1.84,3.55,3.55,0,0,1,.57.82c-1.52.21-3,.41-4.55.59a3.28,3.28,0,0,0-.18-1,8.65,8.65,0,0,0-1.33-2.1,12.76,12.76,0,0,0-3.64-3.13,28.75,28.75,0,0,0,2.74,3.86l.75.9a8.23,8.23,0,0,1,.66.86,4.08,4.08,0,0,1,.37.72c-1,.2-2,.37-2.93.55a8.83,8.83,0,0,0-1.33-3.27,33.38,33.38,0,0,0-2.92-3.81A36,36,0,0,0,215.79,87c1,1.23,2.09,2.4,3.14,3.57s2.1,2.35,3.13,3.54,2.08,2.37,3.05,3.57a12,12,0,0,1,1.72,2.82l-1.87.35a10.52,10.52,0,0,0-2.07-3.42,9.75,9.75,0,0,0-4.93-3A37.16,37.16,0,0,1,222,98.2a29.68,29.68,0,0,1,2.19,2.75c-.85.14-1.7.26-2.55.39a8.38,8.38,0,0,0-.74-1.64c-.7-1.22-1.52-2.28-2.31-3.39a51.94,51.94,0,0,0-5.33-6.17A50.74,50.74,0,0,0,217.7,97c.81,1.08,1.68,2.14,2.48,3.18a14.25,14.25,0,0,1,.83,1.25c-.69.1-1.38.22-2.07.31l-.46.06a23.76,23.76,0,0,0-3.25-5.55,23,23,0,0,0-5.33-5.05c1.34,1.88,2.75,3.61,4.12,5.38a6.86,6.86,0,0,0-1-.69,7.5,7.5,0,0,0-2.06-.76c1,1.11,2.12,1.92,3,2.9A7.62,7.62,0,0,1,215,99.62a5.93,5.93,0,0,1,.64,1.93,3.11,3.11,0,0,0,.21-2.25,4.22,4.22,0,0,0-.2-.6c.81,1,1.63,2.1,2.48,3.14-1.74.23-3.49.43-5.24.6A7.24,7.24,0,0,0,212,99a14.38,14.38,0,0,0-2.59-3.39,29.57,29.57,0,0,0-6.64-5.08c1.9,2.06,3.9,3.94,5.82,5.89a22.21,22.21,0,0,1,2.63,3,10,10,0,0,1,1.44,3c-.64.06-1.28.1-1.92.15a4.32,4.32,0,0,0,0-2.2,5.66,5.66,0,0,0-1.08-2.13,5.75,5.75,0,0,0-1.85-1.51,4.25,4.25,0,0,0-2.28-.49A11.29,11.29,0,0,1,208.74,99a11.17,11.17,0,0,1,1.92,3.6l-2.16.17a7.15,7.15,0,0,0-1.21-3.3,25.12,25.12,0,0,0-3.06-3.73A28.74,28.74,0,0,0,196.56,90l3.49,3.22c1.14,1.08,2.27,2.17,3.35,3.3s2.19,2.26,3.15,3.44a8.8,8.8,0,0,1,1.59,2.81l-2.92.16a9.47,9.47,0,0,0-1.76-5.7A9.27,9.27,0,0,0,198,93.46a18.51,18.51,0,0,1,4.49,4.47,18.27,18.27,0,0,1,2.42,5c-1,0-1.91.09-2.87.12a19.46,19.46,0,0,0-11.72-13,39.23,39.23,0,0,1,11.57,13c-1.26,0-2.53,0-3.79.05a9.53,9.53,0,0,0-1.84-5,9.25,9.25,0,0,0-5-3.58,23.47,23.47,0,0,1,4.05,4.25,22.51,22.51,0,0,1,2.4,4.31c-.83,0-1.66,0-2.49,0l-2.07,0a32.1,32.1,0,0,0-3.94-6.27,30.51,30.51,0,0,0-6-5.77c1.63,2.26,3.37,4.35,5.06,6.5,1.5,1.84,2.95,3.7,4.52,5.53l-2.76-.1a52.86,52.86,0,0,0-3.64-5.34c-.8-1-1.62-2-2.49-3a9.74,9.74,0,0,0-3-2.59,21.94,21.94,0,0,1,2.26,3.14c.72,1.09,1.5,2.13,2.29,3.17a54,54,0,0,0,4,4.61q-2.83-.14-5.68-.36a9.87,9.87,0,0,0-.67-2.25c.56.6,1.13,1.2,1.75,1.77a19.65,19.65,0,0,0-7.39-8.9c.47.76,1,1.47,1.5,2.16a8.67,8.67,0,0,0-2.26-1.07A26.06,26.06,0,0,1,181,98.92a22.14,22.14,0,0,1,2.13,3.66c-1.15-.09-2.31-.2-3.47-.32a37.52,37.52,0,0,0-3.39-5.09,35.87,35.87,0,0,0-4.64-5,35.71,35.71,0,0,0,3.73,5.71,37.55,37.55,0,0,0,3.93,4.34l-1.36-.14a.64.64,0,0,1,0-.07s0,0,0,.07l-3.49-.4a16.33,16.33,0,0,0-1.33-3.25,21.76,21.76,0,0,0-2.85-4,31.65,31.65,0,0,0-7.53-6.17c2.23,2.37,4.58,4.54,6.67,6.93a35.83,35.83,0,0,1,4.59,6.44l-2.08-.26a9.22,9.22,0,0,0-1.06-3,8.27,8.27,0,0,0-4.45-3.87,20.11,20.11,0,0,1,3.44,4.43,15.74,15.74,0,0,1,1.08,2.32l-2.78-.39a39.63,39.63,0,0,0-4.51-7.57,38.79,38.79,0,0,0-6.91-7.17c2,2.68,4,5.23,6,7.86,1.72,2.25,3.37,4.55,5.09,6.83l-4-.6.54-.33-.67.16a10.68,10.68,0,0,0-.72-2.6,15.86,15.86,0,0,0-2-3.49,24.8,24.8,0,0,0-5.85-5.4c1.59,2.15,3.38,4,4.93,6.1a25.57,25.57,0,0,1,3.27,5.47l-3.47-.55-4.51-.36a15.36,15.36,0,0,0-3-4.42,14.64,14.64,0,0,0-5.36-3.64c1.55,1.52,3.09,2.92,4.52,4.44,1.12,1.15,2.17,2.35,3.25,3.58-2.3-.18-4.59-.35-6.89-.47,2.89.88,5.8,1.66,8.73,2.42a22.69,22.69,0,0,1-2.25.73,22,22,0,0,1-2.28.49,7.68,7.68,0,0,0-1.88-2.82,12.19,12.19,0,0,1,1.12,2.93c-.72.1-1.46.18-2.21.24a10.83,10.83,0,0,0-.78-1.65,16,16,0,0,1-5,16.49,11.73,11.73,0,0,0,6-7.17,12.07,12.07,0,0,0-.17-7.54,8,8,0,0,0,2.33.48c0,.07,0,.15,0,.22a14.17,14.17,0,0,1,.12,1.45l-.39.23c.13,0,.26-.06.39-.09a12.57,12.57,0,0,1-.18,2.53,23,23,0,0,1-3.22,7.79,13.26,13.26,0,0,0,4.36-7.59,11.36,11.36,0,0,0,.08-3,44.92,44.92,0,0,0,5.36-1.79c.81-.34,1.61-.69,2.4-1.06,2.07.33,4.13.65,6.2,1-.29.18-.58.36-.87.51a14,14,0,0,1-3.12,1.16,55.83,55.83,0,0,1-6.82.91,15.47,15.47,0,0,0,3.51.55,13.25,13.25,0,0,0,3.59-.34,9.71,9.71,0,0,0,3.32-1.51,7.61,7.61,0,0,0,1.26-1.15c1.27.18,2.54.37,3.82.54l.43.06c0,.16.09.32.13.49a3.55,3.55,0,0,0,.08-.47l1,.13a4.48,4.48,0,0,1-1.35,1.25,13.31,13.31,0,0,1-3.05,1.34,41.52,41.52,0,0,1-6.73,1.57,13.52,13.52,0,0,0,7.1-.47,9.71,9.71,0,0,0,3.23-1.72,4.35,4.35,0,0,0,1.16-1.49,1.88,1.88,0,0,0,.14-.42c1.28.16,2.56.32,3.83.46a6.28,6.28,0,0,1-1,1.25,21.82,21.82,0,0,1-3.43,2.35c-2.42,1.47-4.92,2.78-7.45,4.19a25.45,25.45,0,0,0,8-3.2,14.52,14.52,0,0,0,3.49-2.71,5.42,5.42,0,0,0,1.05-1.82l2.5.26a11.93,11.93,0,0,1-2.16,2.45,12.87,12.87,0,0,1-3.48,2.11,4.17,4.17,0,0,0,2.24-.12,5.79,5.79,0,0,0,2-1.11,5.24,5.24,0,0,0,1.82-3.29c1.86.17,3.71.32,5.57.44a8.66,8.66,0,0,1-1.65,1.49,19.74,19.74,0,0,1-3.59,1.88c-2.53,1.11-5.13,2-7.81,2.89a21.62,21.62,0,0,0,8.26-1.82,13.3,13.3,0,0,0,3.7-2.25,6.51,6.51,0,0,0,1.66-2.16q3.15.19,6.3.27a4.67,4.67,0,0,1-1.07,1.22,1,1,0,0,1-.11.1,12.17,12.17,0,0,0-2.68,1.58c.28,0,.56,0,.84-.08-.34.25-.67.5-1,.73a27.76,27.76,0,0,1-6.91,3.26,13.25,13.25,0,0,0,7.55-2.29,14.34,14.34,0,0,0,2.54-2.18c.39-.12.78-.24,1.16-.38a8.08,8.08,0,0,0,2-1,2,2,0,0,0,.67-.93h3c-1.3,1.14-2.59,2.28-3.91,3.39-2,1.75-4.09,3.39-6.14,5.19a24.17,24.17,0,0,0,5.79-3.43,12.47,12.47,0,0,0,5.15-2,13,13,0,0,0,3.49-3.29q3.16-.11,6.33-.35a41.76,41.76,0,0,0-6.64,3.52,43.88,43.88,0,0,0-4.94,3.74,28.79,28.79,0,0,0-5.28,1.26c-.82.09-1.64.2-2.45.35.41,0,.81.08,1.22.11-.68.28-1.36.58-2,.92q1.83-.44,3.66-.78l2,.13.79,0c-.31.32-.62.62-.92,1l1.38-.93,3.55.2,4.79.22a9.34,9.34,0,0,1,4.1,1c-.66.44-1.31.9-2,1.32,0-.09,0-.17,0-.25h.23l-.22,0c0-.16,0-.32,0-.48,0,.15-.09.3-.14.46a50,50,0,0,0-11.64-1.19,52.34,52.34,0,0,0-10.06,1,35.49,35.49,0,0,0-3.72-.16c-1,0-2,.08-3.05.18-.51.07-1,.12-1.52.2a2.46,2.46,0,0,0-1.4.62,2.54,2.54,0,0,1,1.43-.3l1.51.05c1,0,2,.09,3,.16,2,.15,4,.36,6,.69s4.08.75,6.1,1.26c-1.5.06-3,.14-4.5.28a65.14,65.14,0,0,0-7.22,1.08,17,17,0,0,0-6.77,2.75l0,0v0l.14.74v-.7a21.12,21.12,0,0,1,6.83-1.93c2.37-.35,4.76-.63,7.16-.86s4.88-.43,7.33-.64c.88.26,1.76.52,2.64.8-.53-.31-1.08-.6-1.64-.88,1.69-.15,3.38-.31,5.06-.5a1.83,1.83,0,0,1-.08.25c-1.33.73-2.69,1.44-4.06,2.1l-1.81.85c0-.08,0-.15,0-.23l-.06.25-.32.16-1.27.55a55.38,55.38,0,0,0-12.66.81,35,35,0,0,0-7.31,2,15.16,15.16,0,0,0-3.31,1.91,9.77,9.77,0,0,0-2.45,2.88,13.08,13.08,0,0,1,6.09-3.94,47.75,47.75,0,0,1,7.18-1.68c3.78-.69,7.58-1.14,11.42-1.49l-2,1.1,0-.11s0,.08,0,.13h0c-.73.36-1.45.74-2.16,1.13.62-.13,1.24-.29,1.86-.45a16.41,16.41,0,0,1-4.86,5.64,54.47,54.47,0,0,1-7.12,4.5c-2.47,1.38-5,2.66-7.47,4.1a40.35,40.35,0,0,0-3.61,2.33,11.12,11.12,0,0,0-1.62,1.45,3.84,3.84,0,0,0-1,1.91,6,6,0,0,1,2.91-2.89c1.21-.71,2.45-1.37,3.72-2,2.53-1.26,5.1-2.5,7.6-3.88a41.55,41.55,0,0,0,7.14-4.81,14.22,14.22,0,0,0,4.43-6.37q1.36-.36,2.73-.75l1.76-.77a22.42,22.42,0,0,1-1.8,4.45,33.3,33.3,0,0,1-3.65,5.33c-2.75,3.34-6,6.3-8.77,9.8a75.21,75.21,0,0,0,9.66-9.07,24.54,24.54,0,0,0,3.57-5.67,16.11,16.11,0,0,0,1.32-5l.15-.07,2.21-1c1-.47,1.95-1,2.91-1.48a38.85,38.85,0,0,1-4.59,8c-2.4,3.35-5.24,6.39-7.84,9.69a50,50,0,0,0,8.78-9,28.54,28.54,0,0,0,3.16-5.5,20.09,20.09,0,0,0,1.15-3.49c1.28-.69,2.54-1.41,3.79-2.16a47.75,47.75,0,0,1-3.39,8,51.27,51.27,0,0,1-6.52,9.3,25.87,25.87,0,0,0,7.54-8.75,27.1,27.1,0,0,0,3-8.86l.59-.35c1.33-.83,2.64-1.7,3.93-2.59a25.54,25.54,0,0,1-2.81,7,26.08,26.08,0,0,1-5.55,6.49,14.21,14.21,0,0,0,6.54-5.9,14.53,14.53,0,0,0,2.11-7.78c.57-.4,1.12-.83,1.69-1.24a9.93,9.93,0,0,1-.08,4,13.05,13.05,0,0,1-1.58,3.89c-1.44,2.44-3.56,4.47-5.45,6.77a25.08,25.08,0,0,0,3.54-2.7,15.7,15.7,0,0,0,2.9-3.48,10.83,10.83,0,0,0,1.48-4.34,7.16,7.16,0,0,0-.76-4.21c.69-.51,1.38-1,2-1.51l.84-.67a14.64,14.64,0,0,1-.4,4.67,19.37,19.37,0,0,1-2.3,5.4c-2.06,3.39-5,6.22-7.66,9.29a40.89,40.89,0,0,0,4.72-3.9,24.43,24.43,0,0,0,3.92-4.78,16.38,16.38,0,0,0,2.21-5.84,11.53,11.53,0,0,0-.26-5l.83-.67,1.87-1.57c1.1-1.21,2.2-2.42,3.2-3.72l-.56.41a11,11,0,0,0,1.31-2.67c1.33-.21,2.66-.44,4-.68a20.79,20.79,0,0,1-2.35,4.37,21.53,21.53,0,0,1-4,4.16,8.76,8.76,0,0,0,4.87-3.44,5.45,5.45,0,0,0,2.7-2.22,5.54,5.54,0,0,0,.92-3.28c.57-.11,1.15-.2,1.72-.32l1.29-.4a18.17,18.17,0,0,1-3.16,4.53c-.69.83-1.42,1.65-2.07,2.56a9.85,9.85,0,0,0-1.55,3c1.45-1.69,3-3.1,4.5-4.79a13.25,13.25,0,0,0,1.91-2.79,6.76,6.76,0,0,0,.7-2.59c1.89-.59,3.77-1.21,5.63-1.88a3.54,3.54,0,0,1-.41.94,3,3,0,0,0,.87-1.11l1.85-.7a2.68,2.68,0,0,1-.3.73,2.1,2.1,0,0,0,.9-1l.14-.06a6.05,6.05,0,0,1-1,2.93c-.59.93-1.28,1.86-1.9,2.83a36.7,36.7,0,0,0-3.27,6.13,36,36,0,0,0,4.24-5.5,23.66,23.66,0,0,0,1.73-3,4.6,4.6,0,0,0,.32-3.37Zm-85,3.9a43.55,43.55,0,0,0-5,2.37,7.4,7.4,0,0,0-.22-1v0a10.83,10.83,0,0,0,2.26-.34,9.82,9.82,0,0,0,3.22-1.52l.7.19Zm37.5,3.68c-.4.17-.9.32-1.41.48a3,3,0,0,0,.25-.67h0l1.36,0h.12A1.65,1.65,0,0,1,195,105.66Zm7.8,13.76.22,0-.23.13S202.82,119.46,202.82,119.42Zm.37-.11h-.35c0-.31.09-.62.11-.93-.09.31-.2.61-.3.92-2.27-.12-4.54-.17-6.8-.13a35.57,35.57,0,0,0-8.1-2.32c2.54-.08,5.07-.16,7.6-.17,3.86-.06,7.71.06,11.61.09l-.12.4C205.64,117.91,204.42,118.62,203.19,119.31Zm-3.79-11.62c-1.23.82-2.51,1.57-3.81,2.37.13-.1.27-.2.39-.31a28,28,0,0,0,4.07-4.29c.92,0,1.84,0,2.75-.06C201.66,106.18,200.55,107,199.4,107.69Zm4.44,1.82c2.4-1.57,4.85-3.06,7.31-4.59,1.47-.12,2.94-.26,4.41-.43a8.23,8.23,0,0,1-2.72,2.93c-.61.42-1.23.84-1.89,1.25L209,109.9a35.71,35.71,0,0,1-3.83,2.2,31.91,31.91,0,0,0-4.48-.07c-.27,0-.53,0-.79.06C201.23,111.22,202.53,110.35,203.84,109.51Zm-4.9,3.83c.61-.06,1.23-.12,1.85-.16s1.2,0,1.8-.06c-.43.13-.87.24-1.31.33l-1.06-.08Zm6.11.52c-.77-.13-1.54-.22-2.32-.29a11.2,11.2,0,0,0,2.29-.46c1.72,0,3.45.14,5.18.31-.39.22-.79.44-1.18.68.68-.18,1.34-.38,2-.6l.95.1c-.19-.08-.4-.14-.59-.21.7-.24,1.4-.51,2.09-.8-1.41,1.06-2.84,2.07-4.31,3A7.31,7.31,0,0,0,205.05,113.86Zm12.2-4.62a71.29,71.29,0,0,1-6.58,3.91,26.47,26.47,0,0,0-3.63-.82,24.65,24.65,0,0,0,2.62-1.45,33.16,33.16,0,0,0,3.75-2.76,6.45,6.45,0,0,0,2.3-3.64l2.59-.31a3.64,3.64,0,0,1-.66,1.32,8.58,8.58,0,0,1-2,1.71c-1.54,1.07-3.15,2-4.83,3a11.49,11.49,0,0,0,5.48-2A6.5,6.5,0,0,0,218.4,106a3.24,3.24,0,0,0,.4-1.88l.45,0c.88-.12,1.75-.27,2.63-.4,0,0,0,0,0,.08s0-.06,0-.08l.92-.14A19.92,19.92,0,0,1,217.25,109.24ZM227.51,105c-.23.37-.48.72-.73,1.08a8.17,8.17,0,0,0,.76-3.39l1.51-.28C228.52,103.34,228.05,104.2,227.51,105Z"/><path class="cls-2" d="M160.61,99.54a15.57,15.57,0,0,0-9.27-9.22c1.68,1.49,3.31,2.87,4.83,4.41S159.11,97.87,160.61,99.54Z"/><path class="cls-2" d="M232,98.48a36.25,36.25,0,0,0-4.1-5.54,36.9,36.9,0,0,0-5-4.77A36.31,36.31,0,0,0,227,93.71,37.42,37.42,0,0,0,232,98.48Z"/><path class="cls-2" d="M150.71,98.16A6.49,6.49,0,0,0,145,92.74c1.06.92,2,1.7,3,2.59S149.73,97.15,150.71,98.16Z"/><path class="cls-2" d="M233.37,106.68c-1.33,1.94-2.82,3.74-4.35,5.64a17.57,17.57,0,0,0,8.13-11.68C235.91,102.74,234.73,104.76,233.37,106.68Z"/><path class="cls-2" d="M170.55,135.59c2.13-.72,4.24-1.51,6.34-2.31,4.18-1.64,8.34-3.35,12.37-5.4-4.36,1.2-8.59,2.72-12.79,4.32-2.09.82-4.18,1.65-6.24,2.55a29.65,29.65,0,0,0-3.08,1.45,5.1,5.1,0,0,0-2.31,2.5,5.21,5.21,0,0,1,2.57-2C168.41,136.27,169.49,136,170.55,135.59Z"/><path class="cls-2" d="M179.22,128.73c1.78-.35,3.59-.69,5.37-1.22a16.54,16.54,0,0,0,5-2.33c-3.41,1.4-7,1.78-10.61,2.43a30.44,30.44,0,0,0-5.38,1.4,13,13,0,0,0-4.74,3l-.1.11,0,.1c.21.68.43,1.35.66,2-.06-.66-.13-1.31-.22-2A16.4,16.4,0,0,1,174,130,52.34,52.34,0,0,1,179.22,128.73Z"/><path class="cls-2" d="M187.27,134a51.64,51.64,0,0,0,3.8-4,13.78,13.78,0,0,0,2.71-4.84c-1.89,3.18-4.69,5.45-7.32,8a23.79,23.79,0,0,0-3.57,4.29,10.38,10.38,0,0,0-1.75,5.27,14.63,14.63,0,0,1,2.49-4.76A37.8,37.8,0,0,1,187.27,134Z"/></g><path class="cls-2" d="M22.72,66.56a6.41,6.41,0,0,1-.36,2.56q1.91,2.09,6.81,6.79,4.41,4.28,6.68,6.89a24.72,24.72,0,0,0,4.59,3.68A27.94,27.94,0,0,1,45,90.06c.17.2.63.88,1.36,2.06a4,4,0,0,0,1.7,1.67l-.87,1.93-1.36-1a26.38,26.38,0,0,0-3.36,6.76,51.07,51.07,0,0,1-9.31-2.67,36.35,36.35,0,0,1-8.35-4.61q3.63,8.83,14,15a2.47,2.47,0,0,1,1.44,1.86,8.67,8.67,0,0,0-3.45.09c-2,.36-3.15.56-3.41.58,1.45,1.43,2.18,2.17,2.2,2.2A1,1,0,0,1,36,115s-.22.38-.61,1.06a13.18,13.18,0,0,0-1,2.18,19.42,19.42,0,0,1-3.46-1c-.9-.36-2.23-1-4-1.86s-3.09-1.5-4-1.85a29.08,29.08,0,0,0-5.81-1.35,29.13,29.13,0,0,1-5.86-1.37,7.44,7.44,0,0,0-4.74-.33A18.12,18.12,0,0,0,2.9,112,6.21,6.21,0,0,1,0,113a112.86,112.86,0,0,0,6.53-12.79c.76.71.86,1.75.32,3.11l1,.13A19.19,19.19,0,0,0,9.27,100l.89-.69a8,8,0,0,0-.74,3.16,4.73,4.73,0,0,0,1-2.34q2,.44,5.7,1.62c2.55.83,4.44,1.38,5.69,1.65A34.51,34.51,0,0,0,19,98.07q-2.29-3.72-3.77-4.3c-.79-.32-1.56,0-2.3.88-1.15,1.37-1.76,2.09-1.85,2.15a8.21,8.21,0,0,0,1.39-3.14c-1,.48-2.16,1.89-3.43,4.22-1.33-.31-1.29-2.23.12-5.78a23.47,23.47,0,0,1,3.25-5.76C13.84,84.53,15,83.73,15.87,84c-.34.85.35,1.61,2.06,2.3a46.59,46.59,0,0,0,8.16,1.88,50.31,50.31,0,0,1,6.35,1.3,21.14,21.14,0,0,0-4.3-6.31,18.84,18.84,0,0,0-6.31-4.84,6.89,6.89,0,0,0-.76-.26l-.1.86L19.81,79,20,80.2l-.89,0a15.76,15.76,0,0,1,.77-2.52,14.76,14.76,0,0,0,.76-2.61l-.27-.29a35.58,35.58,0,0,1-2.56,3.33l-1.4-1.36,5.85-10.36Zm-19,41.5a27.94,27.94,0,0,1-2.64,4.35,5.47,5.47,0,0,1,2.1-1.34c.78-.29,1.58-.57,2.38-.85a.74.74,0,0,1-.36-.52.85.85,0,0,0,.5-.66A9.43,9.43,0,0,1,3.73,108.06Zm1.74-4.7a4.88,4.88,0,0,0-.34.72,4.85,4.85,0,0,0-.36,2.46,2.13,2.13,0,0,0,1.44,1.85,6,6,0,0,1,.53-1.68c.38-.89.6-1.44.65-1.64a1.69,1.69,0,0,1-.66-.12A2.35,2.35,0,0,1,5.47,103.36Zm1.86,6.47a9.52,9.52,0,0,1-1.2-.43,3.32,3.32,0,0,1,0,.85A9.94,9.94,0,0,0,7.33,109.83Zm14.31.13a23.17,23.17,0,0,0-3.42-1.75q-4.57-1.83-10.81-.1l-.27.79a60.24,60.24,0,0,0,7.27.3A28.84,28.84,0,0,1,21.64,110ZM10.77,91a6,6,0,0,1-.64,2.21l-1,2.16c.58-.5,1-.85,1.18-1a4.73,4.73,0,0,0,.88-1.26h.71a5.35,5.35,0,0,1,.7,0,1.27,1.27,0,0,0-.8-1.93A2.52,2.52,0,0,0,10.77,91Zm4.09-2.77c-.37-.08-.87-.22-1.49-.41a5.93,5.93,0,0,1-1,.66,1.92,1.92,0,0,0-.79.77.82.82,0,0,0,.45,1.08l1.31.81.75-1.47C14.46,89.05,14.71,88.57,14.86,88.25Zm-.27-3.94a23.8,23.8,0,0,0-2.34,3.61,5.78,5.78,0,0,0,2.05-2.41A4.39,4.39,0,0,0,14.59,84.31Zm18,27.71a3.7,3.7,0,0,0-.71,1.42c-.16.54-.3,1.06-.44,1.58a15.93,15.93,0,0,1-2.69-1.22c-1.23-.65-2.1-1.07-2.62-1.28A30.8,30.8,0,0,0,12.38,110c1.9.48,4.74,1.26,8.54,2.37A42.58,42.58,0,0,1,25.1,114q3.46,1.53,4.08,1.77c.33.13,1.12.39,2.39.77a11.66,11.66,0,0,1,2.33.93l1.46-3.07A32,32,0,0,1,32.62,112ZM16.47,93.49a5.65,5.65,0,0,0,1.68,2.9c1.58,1.58,2.39,2.4,2.42,2.48s.71,1.17,1.72,3a6.56,6.56,0,0,0,2.33,2.59L23,100.27a14.3,14.3,0,0,0-2-3.8,8.38,8.38,0,0,0-3.5-2.63C17.14,93.71,16.8,93.59,16.47,93.49ZM19.13,73c-.39.67-.94,1.7-1.65,3.08a1.56,1.56,0,0,0,1.4-.67q.47-.66,1-1.32A3.18,3.18,0,0,1,19.13,73Zm2.13-3.32-.25.52.47.38a6.55,6.55,0,0,1-.69.83,3.42,3.42,0,0,0-.7,1c-.2.49-.13.83.2,1a10.53,10.53,0,0,1,1,.63,6.82,6.82,0,0,0,.59-1.85,15,15,0,0,1,.51-1.88L21.83,70A5.59,5.59,0,0,0,21.26,69.72ZM22,87.81a17.24,17.24,0,0,0,5.33,2.32C25,89,23.8,88.36,23.7,88.32A8.81,8.81,0,0,0,22,87.81Zm.95-14.12-.25.52,1.31.28c-.19.94.47,1.82,2,2.64q1.66.86,3.36,1.68a10.77,10.77,0,0,1,2.67,3c1.32,2,2.09,3.11,2.3,3.38a25.28,25.28,0,0,0,3.4,3.11A15.48,15.48,0,0,1,41,91.61c.3.53.59,1.06.89,1.58a2.72,2.72,0,0,0,1.32,1.2l.79.17c-1.25-1.64-3-3.69-5.36-6.17q-4.23-4.48-5.56-6l-3.58-4.56a12.18,12.18,0,0,0-4.56-3.52A10.46,10.46,0,0,0,22.9,73.69Zm.2-2.62A5.42,5.42,0,0,1,23,72.25a7.58,7.58,0,0,1,2.34,1.36,11.22,11.22,0,0,0,2.3,1.49A37.62,37.62,0,0,1,23.1,71.07Zm.32,39.41q1.57.81,3.21,1.47c.52.2,1.05.4,1.61.59a13.07,13.07,0,0,0-2.73-1.7A4.88,4.88,0,0,0,23.42,110.48Zm1.69-16.57c.25.09.62.26,1.13.49s.9.41,1.17.52a7.43,7.43,0,0,1,1.48.92,7.4,7.4,0,0,0,1.52.94,8.92,8.92,0,0,0,2.21.51c1.29.16,2,.27,2.24.32a11.69,11.69,0,0,1-1.73-1,11.27,11.27,0,0,0-1.68-.93,8.06,8.06,0,0,0-2-.41,8,8,0,0,1-2-.4c-.22-.09-.61-.26-1.17-.52A6.53,6.53,0,0,0,25.11,93.91Zm1.29-5.13a29.18,29.18,0,0,0,7.31,2.92,4,4,0,0,0-2.1-1.83,12.51,12.51,0,0,0-2.68-.6A16.18,16.18,0,0,1,26.4,88.78Zm4.31-10.69a13.38,13.38,0,0,0,4.1,5,8.38,8.38,0,0,1,1.47,1.44A22.52,22.52,0,0,0,30.71,78.09Zm8.3,32a5.93,5.93,0,0,0-.72-.34q-1.83-.73-6.17-.33a2.8,2.8,0,0,1,1.17,1.7A39.17,39.17,0,0,0,39,110.12Zm5.62-14.67a10.22,10.22,0,0,1-1,.68l0,.41c-.7-.15-1.4-.29-2.11-.41a1.55,1.55,0,0,0-1.65,1,4.89,4.89,0,0,0-.2.92,3.58,3.58,0,0,1-.2.91,1.39,1.39,0,0,1-.5.66,4.72,4.72,0,0,1,2.84.14C42.51,98.8,43.46,97.35,44.63,95.45ZM44,91.81a11.65,11.65,0,0,1,.67,2.12,5.65,5.65,0,0,0,2-.09C46,93.4,45.13,92.73,44,91.81Z"/><path class="cls-2" d="M66.56,64l1.18,1.59a8.64,8.64,0,0,1-1.64,2.73,16,16,0,0,1-2,1.77,17.08,17.08,0,0,0-2,1.81,17,17,0,0,0-2.23,3.62,17.5,17.5,0,0,1-2.26,3.65,16.65,16.65,0,0,1-1.85,1.65l-.89-.33a5,5,0,0,0,.85-2.38,2.17,2.17,0,0,0-.83-1.51c-.15-.14-.46-.39-.94-.76s-.86-.69-1.14-.94a48.52,48.52,0,0,1-3.72-4,45.61,45.61,0,0,0-3.7-4,42.53,42.53,0,0,0-3.6-2.78,42.34,42.34,0,0,1-3.56-2.74,7.61,7.61,0,0,1-1-1.17,6.83,6.83,0,0,0-.93-1.13,1.72,1.72,0,0,0-1.22-.45,1.44,1.44,0,0,0-1.17.48,5.16,5.16,0,0,0-.67,1,11.5,11.5,0,0,1-.63,1.09l-.68,0c.42-.72,1-1.84,1.82-3.33a7.66,7.66,0,0,0-2.28,1.67,9.51,9.51,0,0,1-2.19,1.77,2.39,2.39,0,0,1-2.54-.4,13.84,13.84,0,0,0,3.16-2.84c1.25-1.4,2.9-3.37,4.93-5.93a55.86,55.86,0,0,0,4.36-6l1.2.84q-.79,1.53-.93,1.89a1.75,1.75,0,0,0,.35,1.91l.85-.89q.12.35,4.62,5.86c3,3.68,4.69,5.68,5.06,6a19.27,19.27,0,0,0,4.21,2.55A19.28,19.28,0,0,1,58.71,67a6.86,6.86,0,0,1,1.36,1.64,2.9,2.9,0,0,0,2.85-.92c.12-.09.85-.87,2.19-2.36A10.47,10.47,0,0,1,66.56,64ZM34.67,53.12,34.54,53a6.11,6.11,0,0,1-1.27,2.71,9.36,9.36,0,0,1-1.34,1.13A9.7,9.7,0,0,0,30.55,58,8.28,8.28,0,0,0,29,60.92l.35-.45a13.84,13.84,0,0,1,3.19-2.61,13.78,13.78,0,0,0,3.15-2.58l.38-.48a1,1,0,0,1-.29-.21,3.21,3.21,0,0,1-.55-.73A4,4,0,0,0,34.67,53.12ZM49.4,67.67a26.83,26.83,0,0,0-3.2-2.33A27.13,27.13,0,0,1,43,63c-.3-.28-.73-.71-1.28-1.31s-1-1-1.28-1.3c-1.53-1.38-3-1.84-4.37-1.4q2,.64,6.53,4.71A104.37,104.37,0,0,1,50,71.16c-.39-.71-1-1.76-1.78-3.15a9.47,9.47,0,0,1,1.56,1.16,13.75,13.75,0,0,1,2.15,2.54A7.49,7.49,0,0,0,49.4,67.67ZM38.54,49.75a1.31,1.31,0,0,1-.26.35,5.53,5.53,0,0,1-.91.75,5.12,5.12,0,0,0-.91.75c-.47.52-.41,1.37.19,2.54a10,10,0,0,0,.83-.79A3.53,3.53,0,0,0,38.54,49.75Zm.72-2.44c-.55.65-1.34,1.64-2.37,3a4.73,4.73,0,0,0,1.5-1A5.64,5.64,0,0,0,39.26,47.31Zm4.15,6.89a7.83,7.83,0,0,0-2.7-1.6l.33.29A10.66,10.66,0,0,1,43,55.67a10.9,10.9,0,0,0,2,2.84,9.76,9.76,0,0,0,1.81,1.28c-.15-.22-.64-1.19-1.45-2.91A8.94,8.94,0,0,0,43.41,54.2Zm10.8,11.22A34.59,34.59,0,0,0,51,63a34.64,34.64,0,0,1-3.16-2.38,6.87,6.87,0,0,0,1.57,2,19.8,19.8,0,0,0,3,2.12c1.56,1,2.59,1.65,3.09,2A10.3,10.3,0,0,0,54.21,65.42Zm.18,6,1.3,2.24a1.72,1.72,0,0,1-.54,2.3c.22.24.56.64,1,1.19Q58.12,74.82,54.39,71.46ZM66.73,66a9.13,9.13,0,0,0-4,2.54c-1.33,1.25-2.46,1.67-3.4,1.26a5.4,5.4,0,0,1,.24,3.75A7.78,7.78,0,0,1,58,77.16a4.66,4.66,0,0,1-.63.53,5.64,5.64,0,0,0-.66.57,1.69,1.69,0,0,0-.49,1.33l2.1-2.72A5.49,5.49,0,0,0,59,75.65c.38-.77.59-1.21.65-1.32a30.33,30.33,0,0,1,3.57-5.07A28.32,28.32,0,0,1,66.73,66Zm-9.06,1.37-1.3-1c.1.33.21.68.32,1.06a2,2,0,0,0,.56.92,1.77,1.77,0,0,0,1.49.39A3.79,3.79,0,0,0,57.67,67.37Zm.23,5.72-.19-.18c-.2.22-.47.54-.83,1a3.65,3.65,0,0,1,.56.43,2.1,2.1,0,0,1,.57.88C58.5,74.3,58.47,73.6,57.9,73.09Z"/><path class="cls-2" d="M92.61,36.2a2.77,2.77,0,0,1,.43.51,4.41,4.41,0,0,1,.45,2.53,4.28,4.28,0,0,0,.42,2.5,7.84,7.84,0,0,0,1.33,1.44,7.92,7.92,0,0,1,1.34,1.45,2.1,2.1,0,0,1,0,2.38,38.92,38.92,0,0,0-4.1,1.26A2.57,2.57,0,0,1,93,50.52a12.67,12.67,0,0,0-4.91,1.72,27.34,27.34,0,0,0-3.57,3A26.48,26.48,0,0,1,81,58.13q-1.29.84-4.07,2.29T72.8,62.73a18.92,18.92,0,0,0-4,3.35,7.2,7.2,0,0,1-1.12-3.75,8.72,8.72,0,0,0-1-3.86c-.77-1.21-2-3-3.79-5.25s-3-4-3.8-5.25a18.35,18.35,0,0,1-1.49-3.36A17.85,17.85,0,0,0,56,41.22c-.69-1.09-2.26-1.17-4.69-.24l-.58-1.31A13.32,13.32,0,0,0,48.15,42l-1.53-1.74A3.14,3.14,0,0,1,48,38.38a8.84,8.84,0,0,1,2.36-.88,8.35,8.35,0,0,0,2.32-.85A22,22,0,0,0,57,32.47a18.29,18.29,0,0,1,4.59-4.18l1,.95a37.29,37.29,0,0,0-1.75,3.47l.41.31,2.43-1.66.62.23L63.1,32.9a5.6,5.6,0,0,1,4.12,2.44,15.34,15.34,0,0,1,1.51,5.77A15.38,15.38,0,0,0,70.29,47a9.21,9.21,0,0,0,1.94,2,8.9,8.9,0,0,1,1.89,1.9,4,4,0,0,1,.48,1,17.24,17.24,0,0,0,3.5-1.72,31.2,31.2,0,0,0,5.23-4.64,24.92,24.92,0,0,1,5.42-4.6L88.52,40l1.4-.26L91,40.88a8.14,8.14,0,0,0-.3-2.42A8.93,8.93,0,0,0,92.61,36.2Zm-36.94-.07L55.51,36a3.31,3.31,0,0,1-1,1,8.28,8.28,0,0,1-2.46.84,8.21,8.21,0,0,0-2.51.87,16.77,16.77,0,0,0-2,1.59,1.66,1.66,0,0,1,1.11.28,4.18,4.18,0,0,1,1.12-1.19A3.71,3.71,0,0,1,52,39.1a3.64,3.64,0,0,0,2.24-.3,4.57,4.57,0,0,0,1.24-1.16C55.87,37,55.94,36.51,55.67,36.13ZM61.46,48a27.49,27.49,0,0,1-.9-3.7,10.8,10.8,0,0,0-1.14-3.5q-1.35-2.11-4.65-1.16a11.61,11.61,0,0,1,3.63,3.89A45.44,45.44,0,0,0,61.46,48ZM59.64,31.4A6,6,0,0,0,58,33.07a6.12,6.12,0,0,1-1.51,1.61A3.66,3.66,0,0,1,57,35.89a5.8,5.8,0,0,0,1.39-2.14A10.87,10.87,0,0,1,59.64,31.4Zm.53,2.06-.49-.2a13,13,0,0,0-.92,2.15,3.48,3.48,0,0,1,.53-.8C59.93,33.92,60.22,33.54,60.17,33.46Zm1-2.65-.65-.21a1.21,1.21,0,0,0,.16,1.15A2.33,2.33,0,0,0,61.14,30.81Zm-.51,12.28a13.41,13.41,0,0,1,1.41,4,13.41,13.41,0,0,0,1.41,4,9.69,9.69,0,0,0,1.63,1.82q1.47,1.32,1.83,1.71c-.15-.29-.93-1.91-2.34-4.88A45.27,45.27,0,0,0,62,45,22.18,22.18,0,0,0,60.63,43.09Zm5.42-4.5A12.27,12.27,0,0,0,60.88,34a10.06,10.06,0,0,0,.66,1.2,31.64,31.64,0,0,0,2.71,3.39A29.86,29.86,0,0,1,67,42a13.65,13.65,0,0,1,.86,1.59q-.36-1.29-.75-2.55A9.39,9.39,0,0,0,66.05,38.59Zm1.58,1.24a5.1,5.1,0,0,0-.64-3,7.09,7.09,0,0,0-1.73-1.66,15.21,15.21,0,0,1-2.21-1.83,4.17,4.17,0,0,0,.69,1.49,30.3,30.3,0,0,0,2.05,2.69C66.78,38.67,67.39,39.46,67.63,39.83Zm1.5,20.75A2.9,2.9,0,0,0,69,57.77a11,11,0,0,0-2.45-2.29A11.62,11.62,0,0,1,63.92,53a4.42,4.42,0,0,1-.45-1,8,8,0,0,0,1,2.47,16.42,16.42,0,0,0,2,2.36,17.23,17.23,0,0,1,1.93,2.29A7,7,0,0,1,69.13,60.58ZM68.07,42.31c.85,3.91,1.68,6.48,2.47,7.72A13.54,13.54,0,0,0,75,54.09c-.51-.75-1.33-1.83-2.44-3.24-.93-1.18-1.61-2.12-2-2.81A19.23,19.23,0,0,1,68.07,42.31Zm1.15,12.94a11.56,11.56,0,0,1,.4,1.68,4.86,4.86,0,0,0,.58,1.56,4.29,4.29,0,0,0,.37.5C70.8,58,70.36,56.75,69.22,55.25ZM79.6,56.62l-5.53,3.52a16.44,16.44,0,0,0-4.8,4.42,33,33,0,0,1,5-4.14Q78.58,57.48,79.6,56.62Zm-9.33,3.7a7.48,7.48,0,0,0-.85.8,3.42,3.42,0,0,1,.46.81A1.45,1.45,0,0,0,70.27,60.32ZM88.79,42A39.19,39.19,0,0,0,83.4,46.3c-.9.93-1.82,1.87-2.75,2.81a17.62,17.62,0,0,1-3,2.46,4.9,4.9,0,0,0,1.82-.74,12.4,12.4,0,0,0,1.88-1.56c.91-.86,1.51-1.4,1.79-1.62l3.25-2.59C88,43.71,88.78,42.68,88.79,42Zm0,5.7a25.12,25.12,0,0,0-3.29,1.79c-.92.58-2.08,1.41-3.48,2.48-1.8,1.33-3,2.17-3.46,2.52a19.5,19.5,0,0,0,3.33-1.81A78.36,78.36,0,0,0,88.77,47.68Zm2.16,0-.19-.29a46,46,0,0,0-5.66,4.94,53,53,0,0,1-5.68,5,13.56,13.56,0,0,0,1.74-1,31.3,31.3,0,0,0,5-4.25A49.69,49.69,0,0,1,90.93,47.71Zm.53.92a16.7,16.7,0,0,0-2.31,1.21,11.28,11.28,0,0,0-3.47,3.31q3.63-1.84,4.85-2.63a8.74,8.74,0,0,0,1.38-1Zm-.49-7-1.51-1.38a4.67,4.67,0,0,0,1.45,2.36A9.76,9.76,0,0,0,91,41.63Zm2,5.12a2.17,2.17,0,0,0-.35-.87,16,16,0,0,0-2.23-2.34,14.46,14.46,0,0,1,.84,1.55,8.4,8.4,0,0,0,.26.83l.25.62a4.19,4.19,0,0,1,.21.65C92.14,47.08,92.48,46.93,92.93,46.75Zm-.64-8.52-.75.22a7.65,7.65,0,0,1,.14,2.5,4.58,4.58,0,0,0,.37,2.55,7.41,7.41,0,0,0,.8,1,7,7,0,0,1,.65.79,2.6,2.6,0,0,1,.22,2.05A4,4,0,0,0,95,45.72a2,2,0,0,0,.09-2,2.4,2.4,0,0,0-1.19-.8,2.52,2.52,0,0,1-1.17-.77,3.3,3.3,0,0,1-.26-2A3.8,3.8,0,0,0,92.29,38.23Z"/><path class="cls-2" d="M136.88,18.39a18.4,18.4,0,0,1-.88,10.9q-2.28,6.32-6.71,8.32T116.7,42.9q-9.23,3.69-12.62,5.16l-.1-.39a5,5,0,0,0,.61-3.61A14.72,14.72,0,0,0,103.23,41a14.91,14.91,0,0,1-1.35-3,37,37,0,0,1-.73-4.33,33.75,33.75,0,0,0-.72-4.29A39,39,0,0,0,98.16,23q-1.91-4.25-3.68-5.28a6.52,6.52,0,0,0-3.16-.46,3.68,3.68,0,0,1-3-1.09q6.27-2.47,12.51-4.9a111.79,111.79,0,0,1,12.8-4.3,31.72,31.72,0,0,1,5.59-1c2.69-.14,6.14,1.25,10.35,4.2S136.21,15.81,136.88,18.39ZM97.16,13.08q-2,1.06-7.33,3.11v.55a4,4,0,0,1,1.1-.51,5.86,5.86,0,0,1,2.53.14,6.17,6.17,0,0,0,2.2.23A2,2,0,0,0,97,15.16,3.71,3.71,0,0,0,97.16,13.08Zm1,4.65a4.45,4.45,0,0,1-1.31-.07,4.51,4.51,0,0,0-1.18-.11,9.62,9.62,0,0,1,2.78,4.65,18.53,18.53,0,0,0,2,5,27,27,0,0,1-1.33-3.93A52.31,52.31,0,0,1,98.17,17.73Zm32-2.62q-2.48-5.4-5.42-6.78a3.73,3.73,0,0,0-2.49-.13c-.87.16-1.72.33-2.55.52a54.18,54.18,0,0,1-5.64-.05,18.89,18.89,0,0,0-5.59.35,24.9,24.9,0,0,0-4.81,2c-2.31,1.17-3.87,1.91-4.7,2.22.15.47-.09.94-.71,1.4s-.93.83-.92,1.1q.68-.21,4.41-1.77l-.17-.27q-.25-1,4.13-2.16c1.11-.28,2.77-.6,5-.94s3.86-.65,4.94-.93a4.06,4.06,0,0,1,2.33.22c.77.29,1.54.55,2.3.79a12.51,12.51,0,0,0,3.38.43,6.93,6.93,0,0,1,2.89.66A12.65,12.65,0,0,1,130.21,15.11Zm-26.37,11c-.43-1.65-1.85-4.05-4.27-7.22.41,1,.82,2.17,1.21,3.46.23.91.52,2.09.87,3.55.44,1.82.73,3,.87,3.55a38.59,38.59,0,0,0,2.67,7.39l-.4-1.39a19.86,19.86,0,0,1-.5-4.69A23,23,0,0,0,103.84,26.13Zm3.65,16.64a10.18,10.18,0,0,0-1.6.5l-.06-.21a1.68,1.68,0,0,1,.78-1.93,66.64,66.64,0,0,1-5-10.92q1.65,5.85,3.59,14.11A18.64,18.64,0,0,0,107.49,42.77ZM107.73,12a10.66,10.66,0,0,0-2,.29c-.28.07-.73.23-1.35.46a8.23,8.23,0,0,1-1.46.45l.13.51C104.11,13.35,105.67,12.78,107.73,12Zm27.89,7.4a11.77,11.77,0,0,0-2.9-5.11,49.35,49.35,0,0,0-4.47-3.94,13.36,13.36,0,0,1,4.2,6.42,11.62,11.62,0,0,1,.26,2.27,11.82,11.82,0,0,0,.26,2.23,3.07,3.07,0,0,0,1,1.34,3.16,3.16,0,0,1,.95,1.3q1,4-4.46,8.82a54,54,0,0,1-12,7.5A48.09,48.09,0,0,1,108,44.05l1.59.18-2.62,1a7.22,7.22,0,0,0-2.34,1.51q4.61-1.56,11.38-4.52l11.23-4.9a13.79,13.79,0,0,0,7.52-7.34A15.5,15.5,0,0,0,135.62,19.35ZM105.87,31.19l-.75-2.71a37.64,37.64,0,0,0,1.17,8.92l.4,1.58a10.16,10.16,0,0,0,.65,1.83Q108.36,40.32,105.87,31.19Zm1.75-12.08a6.86,6.86,0,0,1-.37-.9,3.63,3.63,0,0,0-.61-1.21,4.75,4.75,0,0,0-1.41-.27.79.79,0,0,1,0,.24.82.82,0,0,0,0,.2A12.94,12.94,0,0,1,106.83,20,4.5,4.5,0,0,1,107,21.5,2.3,2.3,0,0,0,107.62,19.11Zm8.71,20.79-3.79,1a16.47,16.47,0,0,0-3.48,1.3,7.61,7.61,0,0,0-1,.81,8.15,8.15,0,0,1-1,.8L111.75,42A33.31,33.31,0,0,0,116.33,39.9Zm7.26-20.54A7.38,7.38,0,0,0,119,14.27a3.36,3.36,0,0,0-1.87-.2l-1.91.49a18.11,18.11,0,0,1-2.68.38,17,17,0,0,0-2.72.38c-1.73.44-2.49,1.08-2.28,1.9a5.62,5.62,0,0,0,.51,1.19,5.62,5.62,0,0,1,.51,1.19,13.38,13.38,0,0,1,.27,3.15,13.33,13.33,0,0,0,.28,3.2,25.09,25.09,0,0,0,1.2,3.26,24,24,0,0,1,1.21,3.3,11.69,11.69,0,0,1,.32,2.46c1.53-.39,3-.81,4.54-1.24a8,8,0,0,0,3.44-1.81,9.46,9.46,0,0,0,2.34-4.15c.5-1.34,1-2.69,1.46-4.06A8.24,8.24,0,0,0,123.59,19.36Zm-5.13-8.63a27.28,27.28,0,0,0-7,.44c-.55.11-1.39.25-2.53.42a20.9,20.9,0,0,0,8-.43l.75-.24Zm10.42,13.49a11.45,11.45,0,0,0-.91-2.31c-.08,1.36-.17,2.71-.27,4.07a7.33,7.33,0,0,1-1.14,3.88q-3.23,4.74-13.27,7.92l-.76.24a8.09,8.09,0,0,0,3.31-.22q3.91-1,9.41-5.64a15.5,15.5,0,0,0,3.16-3.41A5.94,5.94,0,0,0,128.88,24.22ZM123.09,7.54c-.76-.23-1.5-.46-2.23-.7a5.07,5.07,0,0,0-2.36,0,9.87,9.87,0,0,0-1.86.7Q118.8,7.65,123.09,7.54Zm.14,28.63-.12,0A13.22,13.22,0,0,0,120,37.63a19.21,19.21,0,0,1-3,1.61l.3-.08a1.46,1.46,0,0,0,.31,0,15.4,15.4,0,0,0,3-1.18A9.52,9.52,0,0,0,123.23,36.17Z"/><path class="cls-2" d="M187.89,6.93a6.4,6.4,0,0,1-2.54.46Q184,9.86,181.05,16q-2.67,5.52-4.43,8.51A24.51,24.51,0,0,0,174.57,30a28.25,28.25,0,0,1-1.95,5.48,22.35,22.35,0,0,1-1.53,1.93A4.13,4.13,0,0,0,170,39.59l-2.11-.22.5-1.6A26.13,26.13,0,0,0,161,36.71a51.78,51.78,0,0,1-.39-9.68,36,36,0,0,1,1.75-9.37q-7.25,6.22-9.8,18a2.49,2.49,0,0,1-1.31,2A8.76,8.76,0,0,0,150,34.38c-1-1.79-1.53-2.8-1.63-3.05-.9,1.83-1.37,2.76-1.4,2.79-.26.45-.57.67-.92.65l-1.2-.25a13.13,13.13,0,0,0-2.38-.28,19.37,19.37,0,0,1-.09-3.62c.05-1,.22-2.42.5-4.37s.44-3.42.5-4.38a28.44,28.44,0,0,0-.55-5.94,29.38,29.38,0,0,1-.55-6,7.38,7.38,0,0,0-1.18-4.61,17.19,17.19,0,0,0-2.65-2.89A6.35,6.35,0,0,1,136.65,0a112.66,112.66,0,0,0,14.19,2.17c-.44.94-1.39,1.37-2.85,1.28l.2,1a20.22,20.22,0,0,0,3.74.22l.93.63a7.77,7.77,0,0,0-3.24.29,4.69,4.69,0,0,0,2.55.24c.15,1.36.24,3.34.26,5.92s.09,4.65.22,5.92a35.19,35.19,0,0,0,4.18-4.33c1.87-2.24,2.83-3.89,2.9-4.94.05-.85-.47-1.49-1.56-1.9-1.67-.66-2.55-1-2.63-1.09a8.19,8.19,0,0,0,3.42.34c-.78-.81-2.47-1.45-5.09-1.93q-.18-2,5.53-1.7a22.94,22.94,0,0,1,6.49,1.27q3.24,1.11,3.33,2.49c-.91-.06-1.42.84-1.52,2.68a44.66,44.66,0,0,0,.78,8.33,52.3,52.3,0,0,1,.76,6.44,21,21,0,0,0,4.64-6.07,18.87,18.87,0,0,0,2.6-7.51,7.28,7.28,0,0,0,0-.8l-.85.17-.42-1.08-1.14.55-.25-.85a15.17,15.17,0,0,1,2.62-.07,14.14,14.14,0,0,0,2.72-.1l.2-.34a36.82,36.82,0,0,1-4-1.38l.86-1.76L187.92,6.4ZM142.52,2a28.24,28.24,0,0,1-5-1.13,5.32,5.32,0,0,1,1.93,1.57c.52.65,1,1.31,1.56,2a.72.72,0,0,1,.38-.51.83.83,0,0,0,.78.27A10.37,10.37,0,0,1,142.52,2ZM142,6a10.41,10.41,0,0,1,0-1.28,3,3,0,0,1-.81.26A10.84,10.84,0,0,0,142,6Zm4.39,13.62a23.65,23.65,0,0,0,.58-3.8q.28-4.92-3.31-10.3h-.84a62.65,62.65,0,0,0,2,7A29.45,29.45,0,0,1,146.37,19.58Zm1.17-17.43a4.53,4.53,0,0,0-.79-.09,4.81,4.81,0,0,0-2.45.42A2.14,2.14,0,0,0,143,4.43a6,6,0,0,1,1.77,0,16.23,16.23,0,0,0,1.76.1,1.82,1.82,0,0,1-.1-.67A2.32,2.32,0,0,1,147.54,2.15Zm.33,28.49a3.75,3.75,0,0,0-1.57-.22l-1.64.07a16.09,16.09,0,0,1,.31-2.93c.23-1.37.36-2.33.39-2.89a30.8,30.8,0,0,0-2-13.87q.22,2.92.44,8.85a41.88,41.88,0,0,1-.22,4.48c-.24,2.51-.37,4-.4,4.43s0,1.19,0,2.51a11.41,11.41,0,0,1-.15,2.51l3.37.42A33,33,0,0,1,147.87,30.64Zm-1.44-9.21c-.18,1.17-.31,2.33-.38,3.5,0,.56-.05,1.13-.06,1.72a12.91,12.91,0,0,0,.76-3.13A4.91,4.91,0,0,0,146.43,21.43Zm5.26,14.68q.06-.39.09-.78c.08-1.32-.47-3.31-1.63-6A2.85,2.85,0,0,1,148.91,31,37.57,37.57,0,0,0,151.69,36.11Zm8.68-26.63A5.62,5.62,0,0,0,158.15,12c-1,2-1.53,3-1.6,3.08s-.88,1-2.35,2.59a6.59,6.59,0,0,0-1.73,3L156,17.81a14.57,14.57,0,0,0,3-3.13,8.48,8.48,0,0,0,1.39-4.14C160.37,10.18,160.38,9.83,160.37,9.48Zm.54-6.18a6,6,0,0,1-2.29.08q-2.24-.27-2.37-.27c.66.39,1.11.65,1.37.78a4.62,4.62,0,0,0,1.47.44l.22.68a4.06,4.06,0,0,1,.18.67c1,.12,1.52-.34,1.58-1.36A2.38,2.38,0,0,0,160.91,3.3Zm6.47,33.53a9.28,9.28,0,0,1-1-.77l-.4.11q-.12-1.06-.27-2.13a1.55,1.55,0,0,0-1.51-1.24,5.05,5.05,0,0,0-.94.1,4.18,4.18,0,0,1-.93.1,1.45,1.45,0,0,1-.77-.26,4.78,4.78,0,0,1,.76,2.73C163.53,35.86,165.21,36.32,167.38,36.83ZM164.83,6.31c0-.39-.06-.9-.08-1.55a6.91,6.91,0,0,1-.93-.72,2,2,0,0,0-1-.5c-.47,0-.76.23-.88.77s-.24,1-.36,1.49l1.64.26Zm-2.14,11.5c0,.27-.05.68-.11,1.23s-.11,1-.12,1.27a7.79,7.79,0,0,1-.41,1.7,7.14,7.14,0,0,0-.41,1.74,8.84,8.84,0,0,0,.21,2.26c.25,1.28.38,2,.4,2.22a12.8,12.8,0,0,1,.36-1.94A11.18,11.18,0,0,0,163,24.4a7.77,7.77,0,0,0-.25-2,7.88,7.88,0,0,1-.25-2.05c0-.23,0-.65.12-1.27A5.91,5.91,0,0,0,162.69,17.81Zm5.8-13a23.44,23.44,0,0,0-4.16-1.08,5.77,5.77,0,0,0,2.92,1.19A4.34,4.34,0,0,0,168.49,4.8Zm-1,8.1a17.6,17.6,0,0,0-.52,5.79c.39-2.54.58-3.86.59-4A8.24,8.24,0,0,0,167.48,12.9Zm.48,4.52a29.15,29.15,0,0,0-.46,7.87,4,4,0,0,0,1.07-2.58A12.14,12.14,0,0,0,168.3,20,15.8,15.8,0,0,1,168,17.42Zm13.22-8.07-.57-.08.14,1.33c-.94.12-1.57,1-1.88,2.71-.19,1.23-.36,2.46-.53,3.72a11,11,0,0,1-2.05,3.49c-1.47,1.88-2.3,3-2.49,3.25a25.3,25.3,0,0,0-1.88,4.2,15.5,15.5,0,0,1-2.06,4.16l-1.22,1.33a2.69,2.69,0,0,0-.72,1.64l.09.79a79.35,79.35,0,0,0,4.16-7q2.93-5.43,4-7.17l3.19-4.83a12,12,0,0,0,1.91-5.44A10.65,10.65,0,0,0,181.18,9.35ZM170.62,35a13,13,0,0,1-1.8,1.3,5.58,5.58,0,0,0,.72,1.89C169.76,37.51,170.12,36.45,170.62,35Zm8.85-16.89a13.26,13.26,0,0,0-3.5,5.48,8.71,8.71,0,0,1-.9,1.84A22.53,22.53,0,0,0,179.47,18.15Zm1.14-12.58c-.75-.16-1.9-.36-3.44-.6a1.61,1.61,0,0,0,1.08,1.12c.52.15,1,.31,1.55.49A3.22,3.22,0,0,1,180.61,5.57Zm3.82,1-.56-.08-.21.56a5.3,5.3,0,0,1-1-.39,3.44,3.44,0,0,0-1.14-.36c-.53,0-.83.15-.92.52-.16.7-.25,1.07-.28,1.13a6.66,6.66,0,0,0,1.94,0,15,15,0,0,1,1.94-.1q.06-.21.15-.63A3.53,3.53,0,0,0,184.43,6.55Zm-.7,2.16a4.59,4.59,0,0,1-1.16.24A7.6,7.6,0,0,1,182,11.6a10.9,10.9,0,0,0-.69,2.65A37.61,37.61,0,0,1,183.73,8.71Z"/><path class="cls-2" d="M228.69,39.45a7.75,7.75,0,0,1-1.95,2.63c-.82.78-1.63,1.55-2.44,2.3a16.65,16.65,0,0,1-9.22,5,19.06,19.06,0,0,1-10.7-1.17A36.85,36.85,0,0,1,197,43.55q-5.08-3.78-6.31-5.79a13.91,13.91,0,0,1-2-5,12.75,12.75,0,0,1,.27-3.88,30.42,30.42,0,0,0,.63-5,11,11,0,0,1,.76-3.87q1.69-4.25,6.9-6.1a21.88,21.88,0,0,1,9.77-1,38.56,38.56,0,0,1,10.12,2.29,17,17,0,0,1,9.15,7.88q2.82,5.34,2.7,14.4A6.26,6.26,0,0,1,228.69,39.45Zm-39.1-6.73a6.82,6.82,0,0,0,.2-2.22c-.06-.76-.13-1.51-.22-2.24a5.11,5.11,0,0,0-.11,2.18A9.18,9.18,0,0,1,189.59,32.72Zm3.76,7.53a12.87,12.87,0,0,0-1.57-3c-.64-1-1.28-1.9-1.94-2.86A23.13,23.13,0,0,0,193.35,40.25Zm23.86-23.87a38.26,38.26,0,0,0-8.59-2.44c-4.11-.73-7-.72-8.56,0a14.94,14.94,0,0,0-3.9,2.45l-2.95,2a6.31,6.31,0,0,0-2.37,2.6,6.46,6.46,0,0,0-.32,2,7.63,7.63,0,0,1-.21,2.05,23.47,23.47,0,0,1,3-5.33,6.69,6.69,0,0,1,2.93-1.63,36.77,36.77,0,0,0,5.16-2,17.07,17.07,0,0,1,7.1-1.61,13.18,13.18,0,0,1,4.35.84A17.17,17.17,0,0,0,217.21,16.38ZM203.48,45.15l-5-3.6A20.1,20.1,0,0,1,193.74,37a5.84,5.84,0,0,1-.71-5.68,14.43,14.43,0,0,0,.81-4.58,14,14,0,0,1,.83-4.62,16.07,16.07,0,0,1,1.4-2.67,22.24,22.24,0,0,0-4.45,6.14,19,19,0,0,0-.85,7.34,5,5,0,0,0,1.15,2.82c.63.86,1.27,1.7,1.92,2.53a11.32,11.32,0,0,0,4.32,4.14Zm-3.08-3.46c-.25-.39-.63-1-1.13-1.78a8.88,8.88,0,0,0-3.87-3.11Q196.29,38.35,200.4,41.69Zm.82-3.7-1.83-3c-.75-1.37-1-2.46-.63-3.28.08-.19.22-.48.41-.85s.34-.67.42-.86c.24-.6.51-1.4.82-2.42s.54-1.71.7-2.09c.81-2,2.52-3.3,5.11-3.78q-5.7.75-7.58,5.45a16,16,0,0,0-.56,4.61c-.05,2.41.12,3.9.53,4.47A5.05,5.05,0,0,0,201.22,38Zm18.29-5a8.45,8.45,0,0,0,.2-6.79,7.45,7.45,0,0,0-4.25-3.83,10.67,10.67,0,0,0-7.73-.11,9.38,9.38,0,0,0-6,5.62,13.27,13.27,0,0,0-1.14,6.41,5.07,5.07,0,0,0,3.8,4.6,27.43,27.43,0,0,0,5.25,1.34,5.59,5.59,0,0,0,3.22-.84q.51-.32,4.16-3.17A7.72,7.72,0,0,0,219.51,33Zm-10.4,12.48a17.32,17.32,0,0,1-4.29-1.11,32.71,32.71,0,0,1-3.65-1.79c.71.45,1.43.89,2.17,1.34a15.38,15.38,0,0,0,2.46,1.32A4.44,4.44,0,0,0,209.11,45.51Zm18-5.33a13.32,13.32,0,0,0,.75-3.4c.24-2,.38-3.16.42-3.43-.37,1.24-.76,2.38-1.18,3.41q-2.28,5.73-5.88,8.08a14.81,14.81,0,0,1-8.34,2,102,102,0,0,1-11.25-1.13A33.64,33.64,0,0,0,207.44,47c.24,0,1.49.39,3.74,1.07a8,8,0,0,0,3.8.34,15.2,15.2,0,0,0,5-2,36,36,0,0,0,4.19-3.49c.53-.39,1.09-.8,1.68-1.25A3.36,3.36,0,0,0,227.07,40.18Zm-7.87-16.8a35.91,35.91,0,0,0-9.83-5.87.94.94,0,0,1,0,.45c-.18.44-.76.67-1.74.68q-1,0-2-.09a33.54,33.54,0,0,1,8.44,2A25.09,25.09,0,0,1,219.2,23.38Zm-.71-3.32a13,13,0,0,0-4.16-2.75,31.58,31.58,0,0,0-7.54-1.4l4.14.89a26,26,0,0,1,3.68,1.1A17.56,17.56,0,0,1,218.49,20.06ZM221,35.11a36,36,0,0,0-.45-4.44,8.53,8.53,0,0,1-.5,4.11q-1.78,4.45-8.39,5.55a28.8,28.8,0,0,1-3.68.33q3.57,1.86,9-1.22a19,19,0,0,0,2.86-1.7A11.33,11.33,0,0,0,221,35.11Zm-.67,6.79,0-.63a10.53,10.53,0,0,1-.68,1.11,19.56,19.56,0,0,1-1.74,1c-1.1.62-1.67.93-1.72.94a.48.48,0,0,1-.24,0h-.26a3.36,3.36,0,0,0,3.36-1.17l.6-.8A6,6,0,0,1,220.37,41.9Zm3.08-1.42a27.06,27.06,0,0,0,3.93-5.82,10,10,0,0,0,.54-5.37q-.39-2.67-4.47-7c-2.61-2.71-4.84-4.43-6.7-5.14A7.07,7.07,0,0,1,218.63,19c.8,1.08,1.32,1.74,1.54,2a9.57,9.57,0,0,0,1.5,1.1A3.67,3.67,0,0,1,223,23.3Q227.06,30.17,223.45,40.48Z"/><path class="cls-2" d="M264.64,70.93a7.83,7.83,0,0,1-2.75,1.78L258.8,74a16.72,16.72,0,0,1-10.4,1.45,19.13,19.13,0,0,1-9.6-4.85,37.37,37.37,0,0,1-5.27-6.95q-3.42-5.32-3.87-7.64a13.64,13.64,0,0,1-.16-5.38,12.72,12.72,0,0,1,1.61-3.53,30.8,30.8,0,0,0,2.36-4.52,11,11,0,0,1,2.07-3.35q3.09-3.37,8.6-3.29a21.9,21.9,0,0,1,9.49,2.52,38.14,38.14,0,0,1,8.68,5.7,17,17,0,0,1,5.8,10.58q.76,6-2.53,14.43A6.17,6.17,0,0,1,264.64,70.93ZM231.27,59.27a12.87,12.87,0,0,0-.41-3.41q-.39-1.66-.81-3.36A23.05,23.05,0,0,0,231.27,59.27Zm-.89-8.37a6.69,6.69,0,0,0,1-2c.22-.73.41-1.46.58-2.17a5.29,5.29,0,0,0-.87,2A8.34,8.34,0,0,1,230.38,50.9ZM239,67.41q-1.71-2.56-3.38-5.1a20.37,20.37,0,0,1-2.89-5.91,5.86,5.86,0,0,1,1.33-5.58,13.91,13.91,0,0,0,2.37-4,13.93,13.93,0,0,1,2.39-4,16.16,16.16,0,0,1,2.25-2A22.16,22.16,0,0,0,234.78,45a18.84,18.84,0,0,0-3.37,6.57,5.08,5.08,0,0,0,.08,3.05c.3,1,.6,2,.92,3A11.25,11.25,0,0,0,235,63C236.33,64.47,237.67,65.94,239,67.41Zm23-22.12A38.75,38.75,0,0,0,254.8,40q-5.38-3.18-8-3a15.22,15.22,0,0,0-4.51.92c-.06,0-1.22.32-3.48.88a6.37,6.37,0,0,0-3.13,1.61,6.19,6.19,0,0,0-1,1.76,7.79,7.79,0,0,1-.91,1.85,23.1,23.1,0,0,1,4.71-3.93,6.62,6.62,0,0,1,3.31-.49,39.2,39.2,0,0,0,5.54-.07,16.9,16.9,0,0,1,7.21,1,13.38,13.38,0,0,1,3.78,2.32A17,17,0,0,0,262,45.29ZM237.37,63.1c-.11-.45-.25-1.14-.44-2.07a8.86,8.86,0,0,0-2.54-4.27Q234.69,58.52,237.37,63.1ZM262.87,71a13.42,13.42,0,0,0,1.89-2.92c.93-1.81,1.47-2.83,1.6-3.06-.78,1-1.55,2-2.3,2.78q-4.15,4.56-8.34,5.5a14.89,14.89,0,0,1-8.52-1,107.46,107.46,0,0,1-10.14-5,35.09,35.09,0,0,0,5,3.22c.21.11,1.26.89,3.13,2.31a7.9,7.9,0,0,0,3.44,1.65,15.18,15.18,0,0,0,5.41-.12,35.75,35.75,0,0,0,5.15-1.8c.64-.17,1.31-.37,2-.58A3.54,3.54,0,0,0,262.87,71ZM239.43,59.92l-.66-3.46c-.22-1.55,0-2.65.56-3.3.14-.15.37-.37.69-.65a7.84,7.84,0,0,0,.69-.66c.43-.47,1-1.13,1.62-2s1.11-1.41,1.38-1.71c1.49-1.63,3.52-2.21,6.12-1.75q-5.61-1.31-9,2.44A16.06,16.06,0,0,0,238.67,53c-.89,2.24-1.25,3.7-1.07,4.38A5.18,5.18,0,0,0,239.43,59.92Zm4.75,9.81a18.58,18.58,0,0,1-3.64-2.54,38.17,38.17,0,0,1-2.78-3l1.56,2a15.44,15.44,0,0,0,1.84,2.09A4.44,4.44,0,0,0,244.18,69.73Zm14.11-8a8.44,8.44,0,0,0,2.58-6.28,7.42,7.42,0,0,0-2.64-5.08,10.65,10.65,0,0,0-7.2-2.82,9.36,9.36,0,0,0-7.57,3.16,13.37,13.37,0,0,0-3.33,5.6,5.06,5.06,0,0,0,2,5.64,27.85,27.85,0,0,0,4.44,3.1,5.45,5.45,0,0,0,3.31.34c.4-.08,2.06-.58,5-1.5A7.71,7.71,0,0,0,258.29,61.69Zm.71,2.49a38.45,38.45,0,0,0,1.14-4.32,8.59,8.59,0,0,1-1.92,3.67q-3.23,3.56-9.8,2.26a29.88,29.88,0,0,1-3.56-1q2.69,3,8.87,2a18.23,18.23,0,0,0,3.28-.58A12,12,0,0,0,259,64.18Zm2.39-11.63a36.1,36.1,0,0,0-7.14-8.95.88.88,0,0,1-.2.41c-.32.35-.94.36-1.87,0-.61-.25-1.23-.51-1.84-.79a32.94,32.94,0,0,1,7.2,4.84A25,25,0,0,1,261.39,52.55ZM256,70.3l.19-.6c-.22.2-.56.46-1,.8-.08,0-.75.16-2,.35s-1.9.29-1.95.28a.75.75,0,0,1-.22-.08l-.24-.1a3.33,3.33,0,0,0,3.55.08l.85-.53A5.19,5.19,0,0,1,256,70.3Zm5.91-21.11a12.94,12.94,0,0,0-2.93-4,32.45,32.45,0,0,0-6.57-4l3.57,2.3A24.14,24.14,0,0,1,259,45.81,17.6,17.6,0,0,1,261.89,49.19Zm-2.52,20.86A27.2,27.2,0,0,0,265.09,66a10.15,10.15,0,0,0,2.4-4.85q.56-2.64-1.75-8.08-2.24-5.19-4.47-7.17a6.9,6.9,0,0,1,1.13,2.34c.38,1.29.62,2.09.75,2.38a9.87,9.87,0,0,0,1,1.56,3.69,3.69,0,0,1,.83,1.64Q266.35,61.66,259.37,70.05Z"/><path class="cls-2" d="M286.38,117.21a18.29,18.29,0,0,1-10.92.62q-6.56-1.39-9.15-5.52t-6.95-11.75q-4.92-8.64-6.84-11.8l.37-.15a5.07,5.07,0,0,0,3.66.12A14.9,14.9,0,0,0,259.42,87a14.64,14.64,0,0,1,2.82-1.75,35.38,35.38,0,0,1,4.2-1.31,39.23,39.23,0,0,0,4.15-1.3,38.63,38.63,0,0,0,6-3.12c2.63-1.65,4.2-3.1,4.73-4.37a6.38,6.38,0,0,0,0-3.19,3.71,3.71,0,0,1,.67-3.13q3.31,5.88,6.56,11.72a111.51,111.51,0,0,1,6,12.09A30.84,30.84,0,0,1,296.35,98q.76,4-2.75,10.82T286.38,117.21Zm-1.12-1.11a11.86,11.86,0,0,0,4.67-3.58,47.65,47.65,0,0,0,3.29-5,13.36,13.36,0,0,1-5.78,5,12.7,12.7,0,0,1-2.21.58,12,12,0,0,0-2.18.55,3.12,3.12,0,0,0-1.2,1.14A3,3,0,0,1,280.7,116q-3.84,1.57-9.35-3.2a53.85,53.85,0,0,1-9.06-10.84A48.15,48.15,0,0,1,257,92.1l0,1.6-1.3-2.46A7.21,7.21,0,0,0,254,89.13q2.16,4.34,6,10.65,6.08,10,6.37,10.46a13.85,13.85,0,0,0,8.3,6.45A15.57,15.57,0,0,0,285.26,116.1Zm-27-24.68a11.12,11.12,0,0,0-.72-1.51l.2-.09a1.67,1.67,0,0,1,2,.51,66.67,66.67,0,0,1,10.13-6.48q-5.57,2.41-13.49,5.48A19.94,19.94,0,0,0,258.23,91.42Zm4,8.37-1.48-3.62A16.2,16.2,0,0,0,259,92.9a6.41,6.41,0,0,0-.94-.9,8.41,8.41,0,0,1-.92-.86l2.37,4.4A35.54,35.54,0,0,0,262.27,99.79Zm7.2-11.55,2.59-1.11a38.16,38.16,0,0,0-8.68,2.37l-1.5.61a9.56,9.56,0,0,0-1.73.9Q260.77,91.94,269.47,88.24Zm-2.56,17.88-.05-.12a12.34,12.34,0,0,0-1.84-2.86,19.5,19.5,0,0,1-2-2.8c0,.08.07.18.12.29s.05.24.07.3a16.16,16.16,0,0,0,1.59,2.82A9.55,9.55,0,0,0,266.91,106.12Zm12.61,4a10.48,10.48,0,0,0,2.16-1.22c-1.35.11-2.7.21-4.06.29a7.34,7.34,0,0,1-4-.59Q268.48,106,264,96.49l-.34-.72a8.12,8.12,0,0,0,.67,3.25q1.53,3.74,6.87,8.54a15.39,15.39,0,0,0,3.81,2.68A6,6,0,0,0,279.52,110.08Zm-5.3-24.55q2.36-1,6.56-5.21c-.95.55-2,1.11-3.26,1.67-.87.36-2,.81-3.4,1.35l-3.39,1.34a39,39,0,0,0-7,3.66l1.33-.59a19.7,19.7,0,0,1,4.58-1.14A22.2,22.2,0,0,0,274.22,85.53Zm9.39,18.65A7.38,7.38,0,0,0,288,98.94a3.36,3.36,0,0,0-.06-1.88l-.75-1.83a18.48,18.48,0,0,1-.73-2.6,18.67,18.67,0,0,0-.75-2.64c-.68-1.66-1.41-2.32-2.2-2a5.53,5.53,0,0,0-1.1.67,6.24,6.24,0,0,1-1.11.66,13.8,13.8,0,0,1-3.09.7,14,14,0,0,0-3.13.71,23.61,23.61,0,0,0-3.06,1.64A25.09,25.09,0,0,1,268.94,94a11.81,11.81,0,0,1-2.39.65c.6,1.46,1.21,2.91,1.84,4.33a8.08,8.08,0,0,0,2.27,3.16,9.59,9.59,0,0,0,4.43,1.75c1.39.32,2.8.61,4.21.89A8.18,8.18,0,0,0,283.61,104.18Zm-1.84-25.4a3.79,3.79,0,0,1-.11-1.31,4.68,4.68,0,0,0-.06-1.19,9.59,9.59,0,0,1-4.22,3.39,18.75,18.75,0,0,0-4.66,2.67,26.71,26.71,0,0,1,3.71-1.85A50.89,50.89,0,0,1,281.77,78.78Zm-.09,9.54c-.11.05.18-.11.85-.49a3.59,3.59,0,0,0,1.11-.76,4.8,4.8,0,0,0,.08-1.44,1,1,0,0,1-.24.06l-.2,0a13.66,13.66,0,0,1-2.53,1.94,4.76,4.76,0,0,1-1.51.38A2.25,2.25,0,0,0,281.68,88.32Zm4.55-11.18q-1.34-1.87-4.08-6.84l-.54.08a3.69,3.69,0,0,1,.65,1,6,6,0,0,1,.21,2.53,5.88,5.88,0,0,0,.07,2.2,2,2,0,0,0,1.61,1.15A3.76,3.76,0,0,0,286.23,77.14Zm2.5,33q5-3.19,6-6.3a3.79,3.79,0,0,0-.21-2.48c-.28-.84-.57-1.65-.87-2.45a56.25,56.25,0,0,1-.72-5.6,18.8,18.8,0,0,0-1.11-5.49,25.27,25.27,0,0,0-2.6-4.5c-1.47-2.12-2.42-3.57-2.83-4.35-.45.21-.95,0-1.49-.51s-.95-.81-1.22-.76c.21.42,1,1.79,2.36,4.12l.25-.2c.65-.26,1.55,1,2.69,3.8.44,1,1,2.66,1.62,4.8S291.75,94,292.17,95a4,4,0,0,1,.1,2.34c-.18.8-.33,1.59-.47,2.38a12.52,12.52,0,0,0,0,3.4,6.94,6.94,0,0,1-.26,3A12.75,12.75,0,0,1,288.73,110.16Zm.06-22.7a10.39,10.39,0,0,0-.56-2,14.11,14.11,0,0,0-.65-1.28,9,9,0,0,1-.63-1.38l-.49.2Q287.14,84.57,288.79,87.46Zm2.67,10.46a27.37,27.37,0,0,0-1.38-6.86c-.18-.52-.44-1.34-.76-2.44a20.84,20.84,0,0,0,1.52,7.89c.06.16.18.4.34.71Zm3.79,4.15c.13-.78.26-1.55.39-2.3a5.09,5.09,0,0,0-.33-2.33,10.69,10.69,0,0,0-1-1.75C294.49,97.12,294.79,99.24,295.25,102.07Z"/><path class="cls-2" d="M43.11,164.55a9,9,0,0,1,3.08-.49,8.37,8.37,0,0,1,3.1.59A8.25,8.25,0,0,1,52,166.41a7.59,7.59,0,0,1,1.85,3,7.11,7.11,0,0,1,.3,4,6.29,6.29,0,0,1-1.76,3.14l-1.21-1a5.15,5.15,0,0,0,1-1.41,5.78,5.78,0,0,0,.47-1.5,5.32,5.32,0,0,0,0-1.49,6.26,6.26,0,0,0-.32-1.39,5.61,5.61,0,0,0-1.48-2.36,6.23,6.23,0,0,0-2.19-1.34,7.1,7.1,0,0,0-2.55-.4,8.38,8.38,0,0,0-2.55.45,7.44,7.44,0,0,0-2.41,1.36,7.68,7.68,0,0,0-1.73,2A6.64,6.64,0,0,0,38.6,172a5.61,5.61,0,0,0,.28,2.59,6.17,6.17,0,0,0,.66,1.34,5.51,5.51,0,0,0,1,1.2,6.34,6.34,0,0,0,1.36.91,5,5,0,0,0,1.69.49l-.23,1.55a5.12,5.12,0,0,1-2-.53,7.93,7.93,0,0,1-1.71-1.16,8.28,8.28,0,0,1-1.37-1.58,7.83,7.83,0,0,1-.9-1.81,6.71,6.71,0,0,1-.33-3.3,8.37,8.37,0,0,1,1.07-3,9.36,9.36,0,0,1,5-4.09Z"/><path class="cls-2" d="M60,191.08l-11.43,6.57-.74-1.29,5.25-3-4.19-7.28-5.25,3-.74-1.29,11.42-6.58.74,1.29-5,2.87,4.19,7.27,5-2.87Z"/><path class="cls-2" d="M53.34,204.36,63.54,196l3.86,4.71a4.14,4.14,0,0,1,.81,1.57,4.28,4.28,0,0,1,.12,1.66,4.54,4.54,0,0,1-.48,1.54,3.6,3.6,0,0,1-1,1.21,3.83,3.83,0,0,1-1.19.68,3.74,3.74,0,0,1-1.31.24,4.35,4.35,0,0,1-1.33-.21,3.79,3.79,0,0,1-1.22-.68l-1.7,5.94L59,211.32l1.6-5.6L58,202.48l-3.7,3ZM59,201.62l2.94,3.6a3,3,0,0,0,.88.71,2.72,2.72,0,0,0,1,.27,2.75,2.75,0,0,0,1.06-.15,3,3,0,0,0,1-.55,2.48,2.48,0,0,0,.69-.86,3,3,0,0,0,.31-1,2.73,2.73,0,0,0-.08-1.1,2.83,2.83,0,0,0-.54-1L63.44,198Z"/><path class="cls-2" d="M64.81,217.32,74,207.9l1.07,1-9.19,9.42Z"/><path class="cls-2" d="M84.47,220.37a4.54,4.54,0,0,0-.63-1.79,6.26,6.26,0,0,0-1.54-1.71,4.55,4.55,0,0,0-2.47-1.17,2,2,0,0,0-1.71.8,1.69,1.69,0,0,0-.39.86,1.85,1.85,0,0,0,.18.94,5.32,5.32,0,0,0,.67,1.12c.31.41.68.87,1.12,1.4s.9,1.13,1.26,1.65a5.79,5.79,0,0,1,.78,1.49,2.83,2.83,0,0,1,.13,1.4,2.92,2.92,0,0,1-.66,1.38,3.27,3.27,0,0,1-1.31,1,3.2,3.2,0,0,1-1.54.22,4.9,4.9,0,0,1-1.68-.49,8.81,8.81,0,0,1-1.74-1.1,9.12,9.12,0,0,1-3.33-5l1.36-.52a6.4,6.4,0,0,0,.84,2.3,7.81,7.81,0,0,0,2,2.24,5.22,5.22,0,0,0,2.33,1.16,1.71,1.71,0,0,0,1.73-.68,1.65,1.65,0,0,0,.39-.94,2.4,2.4,0,0,0-.2-1,5.37,5.37,0,0,0-.73-1.24c-.33-.44-.72-.94-1.17-1.48s-.88-1.12-1.22-1.6a5.07,5.07,0,0,1-.68-1.39,2.62,2.62,0,0,1-.06-1.27,3,3,0,0,1,.63-1.27,3.37,3.37,0,0,1,1.31-1,3.48,3.48,0,0,1,1.57-.28,4.79,4.79,0,0,1,1.7.43,7.8,7.8,0,0,1,1.74,1.07,6.77,6.77,0,0,1,2.63,4Z"/><path class="cls-2" d="M99.47,228.3l-4.37-2.59-6,10.18-1.28-.76,6-10.18-4.41-2.61.69-1.16,10.05,6Z"/><path class="cls-2" d="M111.17,246.18l3.85-9.73L107.27,242l-.81-.32-1.83-9.39-3.86,9.72-1.39-.55,4.86-12.25,1.46.58L107.61,240,116,233.9l1.45.58-4.85,12.25Z"/><path class="cls-2" d="M118.88,248.62l8.68-11.6,1.22.26,3,14.15-1.55-.34-.94-4.26-6.23-1.36L120.48,249Zm8.89-9.64-4,5.27,5.5,1.2Z"/><path class="cls-2" d="M147,242.32a4.43,4.43,0,0,0-1.53-1.13,6.14,6.14,0,0,0-2.22-.57,4.56,4.56,0,0,0-2.71.41,2,2,0,0,0-1,1.62,1.69,1.69,0,0,0,.15.93,2,2,0,0,0,.67.68,5.53,5.53,0,0,0,1.19.55c.48.17,1,.35,1.71.55s1.37.43,2,.66a5.74,5.74,0,0,1,1.48.8,2.91,2.91,0,0,1,.89,1.1,3,3,0,0,1,.22,1.51,3.33,3.33,0,0,1-.51,1.59,3.24,3.24,0,0,1-1.16,1,4.89,4.89,0,0,1-1.67.53,8.63,8.63,0,0,1-2.05.06,9.09,9.09,0,0,1-5.56-2.32l.84-1.19a6.38,6.38,0,0,0,2,1.45,7.78,7.78,0,0,0,2.9.74,5.16,5.16,0,0,0,2.58-.32,1.74,1.74,0,0,0,1.06-1.54,1.61,1.61,0,0,0-.2-1,2.42,2.42,0,0,0-.74-.76,6,6,0,0,0-1.29-.62c-.53-.18-1.13-.38-1.8-.58a20,20,0,0,1-1.91-.65,5.13,5.13,0,0,1-1.34-.77,2.64,2.64,0,0,1-.76-1,3.06,3.06,0,0,1-.18-1.4,3.47,3.47,0,0,1,.51-1.59,3.66,3.66,0,0,1,1.15-1.1,4.82,4.82,0,0,1,1.65-.59,8.08,8.08,0,0,1,2-.08,6.72,6.72,0,0,1,4.41,1.86Z"/><path class="cls-2" d="M173.12,235.52l-6,.78,2,15.46-1.67.21-2-15.45-6,.77-.19-1.48L172.93,234Z"/><path class="cls-2" d="M179.07,250.08l-3.32-12.76,5.89-1.53a4.11,4.11,0,0,1,1.77-.09,4.39,4.39,0,0,1,1.56.59,4.75,4.75,0,0,1,1.2,1.08,3.86,3.86,0,0,1,.69,1.39,3.91,3.91,0,0,1,.12,1.36,4,4,0,0,1-.33,1.29,4.48,4.48,0,0,1-.74,1.11,3.64,3.64,0,0,1-1.13.83l4.68,4-1.68.43L183.36,244l-4.05,1,1.21,4.63Zm-.1-6.31,4.49-1.17a2.7,2.7,0,0,0,1-.5,2.59,2.59,0,0,0,.68-.83,2.69,2.69,0,0,0,.3-1,3,3,0,0,0-.09-1.11,2.56,2.56,0,0,0-.49-1,3.28,3.28,0,0,0-.82-.71,2.73,2.73,0,0,0-1-.38,2.77,2.77,0,0,0-1.14.06l-4.35,1.13Z"/><path class="cls-2" d="M204.37,240.15l.51,1.25-9,3.7-5-12.18,8.78-3.63.51,1.24-7.4,3.06,1.72,4.16,6.47-2.67.47,1.15L195,238.91l1.82,4.37Z"/><path class="cls-2" d="M218.77,232.24l.67,1.17-8.38,4.86-6.62-11.4,8.22-4.77.68,1.17-6.93,4,2.26,3.89,6.05-3.51.63,1.08-6.06,3.51,2.38,4.1Z"/><path class="cls-2" d="M232.7,223.61,221.13,211l8.25-7.59,1,1.1-7,6.45,4.25,4.62,5.92-5.44.94,1-5.91,5.44,5.36,5.82Z"/><path class="cls-2" d="M243,213.93l-6.28-13.05.8-1,13.95,3.85-1,1.22-4.21-1.14-4.09,4.9,1.9,3.93Zm-4.43-12.33,2.8,6,3.6-4.33Z"/><path class="cls-2" d="M255.14,198.32l-11.32-6.75,3.11-5.22a4.2,4.2,0,0,1,1.2-1.31,4.37,4.37,0,0,1,1.52-.67,4.91,4.91,0,0,1,1.62-.08,3.84,3.84,0,0,1,1.46.5,4.06,4.06,0,0,1,1,.89,3.72,3.72,0,0,1,.67,1.15,4.19,4.19,0,0,1,.26,1.32,4,4,0,0,1-.22,1.38l6.15-.42-.88,1.49-5.81.4-2.15,3.59L255.9,197Zm-4.51-4.42,2.38-4a2.54,2.54,0,0,0,.37-1.06,2.75,2.75,0,0,0-.09-1.07,2.94,2.94,0,0,0-.5-.94,3.12,3.12,0,0,0-.84-.73,2.66,2.66,0,0,0-1-.35,3.32,3.32,0,0,0-1.09.06,2.93,2.93,0,0,0-1,.46,2.6,2.6,0,0,0-.77.84l-2.3,3.86Z"/><path class="cls-2" d="M268.29,170.55,258.46,167l5.8,7.6-.29.81-9.35,2.1,9.83,3.58-.51,1.4-12.38-4.51.54-1.47,10.12-2.2-6.33-8.2.54-1.47,12.38,4.52Z"/></g></g></svg>